<svg width="37" height="45" viewBox="0 0 37 45" fill="none" xmlns="http://www.w3.org/2000/svg">
<path d="M11.2959 19.1442C11.2959 15.2631 14.4422 12.1167 18.3234 12.1167C22.2045 12.1167 25.3509 15.2631 25.3509 19.1442C25.3509 23.0254 22.2045 26.1717 18.3234 26.1717C14.4422 26.1717 11.2959 23.0254 11.2959 19.1442Z" fill="#323142"/>
<path fill-rule="evenodd" clip-rule="evenodd" d="M0.535256 16.7168C1.27831 7.70229 8.81133 0.764648 17.8564 0.764648H18.7904C27.8355 0.764648 35.3685 7.70229 36.1116 16.7168C36.5117 21.5703 35.0124 26.3897 31.9297 30.1597L21.5657 42.8347C19.8899 44.8841 16.7569 44.8841 15.0812 42.8347L4.71712 30.1597C1.63441 26.3897 0.13519 21.5703 0.535256 16.7168ZM18.3234 8.87329C12.6509 8.87329 8.05242 13.4718 8.05242 19.1442C8.05242 24.8167 12.6509 29.4152 18.3234 29.4152C23.9959 29.4152 28.5943 24.8167 28.5943 19.1442C28.5943 13.4718 23.9959 8.87329 18.3234 8.87329Z" fill="#323142"/>
</svg>
