<svg width="30" height="31" viewBox="0 0 30 31" fill="none" xmlns="http://www.w3.org/2000/svg">
<circle opacity="0.3" cx="15.0112" cy="15.5151" r="14.9282" fill="#6C5FBC"/>
<path d="M12.5426 14.0184C12.5426 12.5617 13.7234 11.3808 15.1801 11.3808C16.6368 11.3808 17.8177 12.5617 17.8177 14.0184C17.8177 15.4751 16.6368 16.656 15.1801 16.656C13.7234 16.656 12.5426 15.4751 12.5426 14.0184Z" fill="#6C5FBC"/>
<path fill-rule="evenodd" clip-rule="evenodd" d="M8.50384 13.1073C8.78273 9.72397 11.61 7.12012 15.0049 7.12012H15.3554C18.7503 7.12012 21.5776 9.72397 21.8565 13.1073C22.0066 14.929 21.4439 16.7378 20.2869 18.1528L16.397 22.91C15.7681 23.6792 14.5922 23.6792 13.9633 22.91L10.0734 18.1528C8.91638 16.7378 8.35369 14.929 8.50384 13.1073ZM15.1801 10.1635C13.0511 10.1635 11.3252 11.8894 11.3252 14.0184C11.3252 16.1474 13.0511 17.8733 15.1801 17.8733C17.3091 17.8733 19.0351 16.1474 19.0351 14.0184C19.0351 11.8894 17.3091 10.1635 15.1801 10.1635Z" fill="#6C5FBC"/>
</svg>
