<svg width="24" height="25" viewBox="0 0 24 25" fill="none" xmlns="http://www.w3.org/2000/svg">
<path d="M1.02271 1.19434C1.02254 1.17298 1.02825 1.15195 1.03833 1.13379C1.04842 1.11577 1.06273 1.10089 1.07935 1.09082C1.0959 1.08086 1.1144 1.07565 1.13306 1.0752L1.18774 1.08887L1.19263 1.09082L23.2659 12.9053L23.2708 12.9082C23.2893 12.9179 23.3054 12.9329 23.3167 12.9521C23.3279 12.9713 23.3337 12.9937 23.3333 13.0166C23.3327 13.0397 23.3259 13.0624 23.3137 13.0811C23.3076 13.0903 23.3003 13.0985 23.2922 13.1055L23.2659 13.1221L23.262 13.124L1.18774 23.5479L1.18286 23.5508C1.16597 23.5589 1.1474 23.5616 1.12915 23.5605C1.11082 23.5594 1.09248 23.5542 1.07642 23.5439C1.06037 23.5336 1.04698 23.5188 1.03735 23.501C1.03255 23.4921 1.02908 23.4825 1.02661 23.4727L1.02271 23.4414V15.2422C1.02261 15.2111 1.03421 15.1819 1.05396 15.1602C1.06386 15.1493 1.07566 15.1408 1.08813 15.1348L1.1272 15.124L1.13013 15.123L18.7551 13.6455L18.7795 12.4688L1.12524 10.2451H1.12231C1.09604 10.2418 1.07075 10.2285 1.052 10.207C1.04261 10.1962 1.03555 10.1835 1.03052 10.1699L1.02271 10.127V1.19434Z" fill="#6C5FBC" stroke="#6C5FBC" stroke-width="1.18333"/>
</svg>
