<svg width="30" height="31" viewBox="0 0 30 31" fill="none" xmlns="http://www.w3.org/2000/svg">
<circle opacity="0.3" cx="15.0126" cy="15.2299" r="14.9282" fill="#6C5FBC"/>
<path fill-rule="evenodd" clip-rule="evenodd" d="M7.54785 15.6962C7.54785 11.3163 11.0985 7.76562 15.4784 7.76562C19.8584 7.76562 23.409 11.3163 23.409 15.6962C23.409 20.0761 19.8584 23.6268 15.4784 23.6268C11.0985 23.6268 7.54785 20.0761 7.54785 15.6962ZM16.1782 11.0312C16.1782 10.6447 15.8649 10.3314 15.4784 10.3314C15.092 10.3314 14.7787 10.6447 14.7787 11.0312V15.6962C14.7787 15.9375 14.903 16.1617 15.1076 16.2896L17.9066 18.039C18.2343 18.2438 18.666 18.1442 18.8709 17.8165C19.0757 17.4887 18.9761 17.057 18.6483 16.8522L16.1782 15.3084V11.0312Z" fill="#6C5FBC"/>
</svg>
