<svg width="27" height="31" viewBox="0 0 27 31" fill="none" xmlns="http://www.w3.org/2000/svg">
<g clip-path="url(#clip0_2_838)">
<path d="M25.5304 24.2326C25.0713 25.2813 24.5279 26.2466 23.8983 27.1342C23.0401 28.3441 22.3374 29.1816 21.7959 29.6466C20.9564 30.41 20.0569 30.801 19.0938 30.8232C18.4024 30.8232 17.5685 30.6286 16.5979 30.234C15.624 29.8412 14.7291 29.6466 13.9108 29.6466C13.0526 29.6466 12.1322 29.8412 11.1477 30.234C10.1617 30.6286 9.36734 30.8343 8.76003 30.8547C7.83643 30.8936 6.91582 30.4915 5.99689 29.6466C5.41039 29.1408 4.67678 28.2737 3.79796 27.0452C2.85505 25.7334 2.07985 24.2122 1.47254 22.4779C0.822139 20.6047 0.496094 18.7907 0.496094 17.0346C0.496094 15.023 0.935693 13.2879 1.8162 11.834C2.50821 10.6662 3.42882 9.74492 4.58103 9.06863C5.73325 8.39233 6.97821 8.0477 8.31894 8.02565C9.05254 8.02565 10.0146 8.25003 11.2101 8.69101C12.4022 9.13348 13.1676 9.35786 13.5032 9.35786C13.7542 9.35786 14.6045 9.09549 16.046 8.57243C17.4092 8.08735 18.5598 7.8865 19.5023 7.96562C22.0563 8.16943 23.9751 9.16497 25.2512 10.9585C22.967 12.3271 21.8371 14.2438 21.8596 16.7028C21.8802 18.6181 22.5829 20.2119 23.9639 21.4774C24.5897 22.0647 25.2887 22.5187 26.0663 22.8411C25.8977 23.3247 25.7196 23.7879 25.5304 24.2326ZM19.6728 1.4406C19.6728 2.9418 19.1182 4.34347 18.0126 5.64084C16.6784 7.18316 15.0647 8.07438 13.3147 7.93375C13.2924 7.75365 13.2795 7.56411 13.2795 7.36492C13.2795 5.92377 13.914 4.38145 15.0407 3.1204C15.6032 2.48191 16.3187 1.95101 17.1862 1.5275C18.052 1.11031 18.8708 0.879597 19.641 0.840088C19.6634 1.04078 19.6728 1.24147 19.6728 1.44058V1.4406Z" fill="#323142"/>
</g>
<defs>
<clipPath id="clip0_2_838">
<rect width="25.5702" height="30.0172" fill="white" transform="translate(0.496094 0.839355)"/>
</clipPath>
</defs>
</svg>
