<svg width="11" height="15" viewBox="0 0 11 15" fill="none" xmlns="http://www.w3.org/2000/svg">
<path d="M8.72688 0.277045C6.66328 -0.068911 4.54536 -0.068911 2.48176 0.277045C1.72786 0.403435 1.12747 0.982212 0.976307 1.73266C0.283801 5.17061 0.246016 8.70834 0.864933 12.1603L1.11692 13.5657C1.19462 13.9991 1.72293 14.1723 2.04212 13.869L5.08369 10.9796C5.37544 10.7024 5.8332 10.7024 6.12496 10.9796L9.16653 13.869C9.48572 14.1723 10.014 13.9991 10.0917 13.5657L10.3437 12.1603C10.9626 8.70834 10.9248 5.17061 10.2323 1.73266C10.0812 0.982212 9.48079 0.403435 8.72688 0.277045Z" fill="#6C5FBC"/>
</svg>
