<svg width="51" height="51" viewBox="0 0 51 51" fill="none" xmlns="http://www.w3.org/2000/svg">
<g clip-path="url(#clip0_2_3087)">
<path d="M27.0583 26.3559C20.8859 32.1347 13.4933 33.3821 12.672 33.5063C11.4074 33.6938 10.1434 33.3851 9.11565 32.6239C8.08753 31.8623 7.41217 30.7482 7.22579 29.4839C6.99111 27.9269 7.53962 26.3492 8.69093 25.2712C9.39841 24.6089 10.2766 24.1843 11.238 24.0335C11.4402 24.0014 16.414 23.1675 20.4394 19.3987C22.8101 17.1792 24.379 14.376 25.1017 11.0688C25.3115 10.1152 25.7931 9.2594 26.5048 8.59309C27.6561 7.51517 29.2629 7.06778 30.801 7.40438C32.0507 7.67319 33.1177 8.42071 33.81 9.49669C34.5022 10.5727 34.7307 11.8581 34.4565 13.1041C33.3082 18.3761 30.8204 22.8336 27.0583 26.3559Z" fill="#F4A360"/>
<path d="M27.824 27.1743C21.6436 32.9607 14.2574 34.3934 12.8393 34.6221C11.2804 34.8551 9.71987 34.4671 8.4487 33.5289C7.17521 32.5889 6.34559 31.2123 6.11408 29.6517C5.824 27.7292 6.50053 25.7858 7.92425 24.4529C8.7951 23.6375 9.87485 23.1065 11.0468 22.917C11.0853 22.9125 15.8533 22.1419 19.6655 18.5727C21.8637 16.5146 23.3208 13.9068 23.996 10.8216C24.253 9.64498 24.853 8.5889 25.7312 7.76668C27.155 6.43372 29.1387 5.88649 31.0372 6.30239C32.5824 6.64159 33.9025 7.55967 34.7528 8.88735C35.6054 10.2175 35.8898 11.8002 35.5537 13.3434C34.3547 18.8416 31.7541 23.4948 27.824 27.1743ZM9.45672 26.0897C8.57956 26.9109 8.15793 28.1161 8.32854 29.3137C8.62623 31.3132 10.496 32.6947 12.4969 32.395C12.8085 32.3491 20.2222 31.2127 26.2841 25.5372C29.8702 22.1797 32.2489 17.917 33.3538 12.8678C33.5643 11.9128 33.3895 10.9321 32.8614 10.108C32.3326 9.28319 31.5134 8.71387 30.5551 8.50546C29.3774 8.24951 28.1481 8.58928 27.266 9.41511C26.7202 9.92617 26.3482 10.5808 26.1904 11.3082C25.4179 14.8447 23.7393 17.8434 21.2007 20.2201C17.0438 24.1119 11.9649 25.0507 11.3993 25.1451C10.6726 25.255 9.99942 25.5816 9.45672 26.0897Z" fill="#4C2F1B"/>
<path d="M30.7133 29.6269C25.2803 34.7136 18.2655 37.1887 13.5082 37.8126C12.2402 37.9803 10.985 37.6417 9.96909 36.8615C8.9535 36.0811 8.30566 34.9562 8.14263 33.6845C7.94557 32.16 8.49665 30.6174 9.62027 29.5654C10.3519 28.8803 11.2651 28.4454 12.2608 28.3151C12.3387 28.302 14.319 28.0294 16.8919 27.0673C19.7705 25.9911 22.2249 24.5181 24.1836 22.6843C27.022 20.0269 28.73 16.6583 29.2541 12.6753C29.399 11.58 29.9212 10.5587 30.7286 9.8028C31.78 8.81843 33.205 8.36106 34.6317 8.54699C35.8964 8.71169 37.0288 9.36046 37.8083 10.3771C38.5878 11.3938 38.9216 12.6476 38.759 13.9166C37.9365 20.1141 35.2306 25.3977 30.7133 29.6269Z" fill="#FF6C4A"/>
<path d="M31.4875 30.4537C25.8659 35.7169 18.591 38.2832 13.6573 38.9302C12.0889 39.134 10.5361 38.7164 9.28481 37.7537C8.03711 36.7942 7.23624 35.4005 7.02917 33.8302C6.78221 31.9488 7.46478 30.0484 8.85449 28.7473C9.75935 27.9001 10.8847 27.3658 12.1088 27.2018C12.1252 27.1996 14.0214 26.9412 16.5007 26.0175C19.2427 24.9923 21.57 23.5956 23.4175 21.8658C26.0581 19.3936 27.6461 16.2531 28.1371 12.5312C28.3113 11.1783 28.9579 9.91762 29.9588 8.98052C31.2609 7.76146 33.0179 7.20042 34.7786 7.44168C36.3406 7.64355 37.7321 8.44609 38.6993 9.70115C39.6635 10.9524 40.0797 12.5051 39.8722 14.0725C39.0198 20.5312 36.199 26.0426 31.4875 30.4537ZM10.3902 30.3876C9.53025 31.1928 9.10649 32.3704 9.25603 33.5378C9.51651 35.5432 11.3592 36.9612 13.3633 36.6999C17.9469 36.0999 24.7105 33.712 29.9475 28.8088C34.2709 24.7611 36.8586 19.7012 37.6384 13.7693C37.7662 12.7998 37.5092 11.8381 36.9139 11.0624C36.318 10.2854 35.455 9.78732 34.4828 9.66032C33.3864 9.51942 32.2974 9.86986 31.4946 10.6215C30.8758 11.2008 30.4751 11.9829 30.3665 12.824C29.8094 17.0712 27.9879 20.665 24.9529 23.5065C22.8862 25.4414 20.3069 26.9939 17.286 28.1211C14.5285 29.1489 12.4346 29.426 12.4138 29.4284C11.6521 29.5296 10.9522 29.8615 10.3902 30.3876Z" fill="#4C2F1B"/>
<path d="M19.5807 31.6859C18.7095 32.5015 17.6082 31.9584 16.8763 31.6018C16.1105 31.2244 15.7089 31.0758 15.521 31.2518C15.0653 31.6785 14.3535 31.6553 13.9272 31.2C13.5008 30.7446 13.5246 30.0329 13.9804 29.6062C15.3115 28.3599 16.9094 29.1053 17.809 29.5448C17.7009 28.7245 17.5955 27.4658 18.575 26.5487C19.5623 25.6244 20.8428 25.7822 21.6917 25.8794C21.8459 25.9 22.0502 25.9256 22.2088 25.9349C22.2323 25.6881 22.2219 25.308 22.2149 25.0602C22.1901 24.1764 22.1655 23.1727 22.8453 22.5363C23.5527 21.8739 24.6496 21.971 25.6186 22.0609C25.7344 22.0721 25.8654 22.0842 26.001 22.0926C25.9978 22.0654 25.9947 22.0459 25.9877 22.0222C25.8569 21.1778 25.664 19.8973 26.5751 19.0442C27.2907 18.3743 28.3251 18.4771 29.2358 18.577C29.3249 18.5836 29.4328 18.595 29.5408 18.6063C29.5332 18.5982 29.5338 18.5904 29.5299 18.5862C29.0923 17.6544 28.2784 15.9278 29.5977 14.6927C30.0535 14.266 30.7652 14.2891 31.1915 14.7444C31.6179 15.1998 31.5941 15.9115 31.1384 16.3382C31.0652 16.5566 31.4051 17.2802 31.5719 17.6262C31.9551 18.4361 32.4797 19.5494 31.6043 20.369C30.9045 21.0242 29.8935 20.9217 29.0017 20.8265C28.751 20.799 28.3614 20.7595 28.1285 20.7673C28.1091 21.003 28.1758 21.4348 28.2138 21.6918C28.3315 22.4506 28.4617 23.3106 27.8142 23.9169C27.2105 24.4821 26.3383 24.3994 25.4116 24.3153C25.1414 24.2909 24.7394 24.2544 24.4685 24.2616C24.4532 24.4856 24.466 24.7957 24.4704 25.0092C24.4973 25.943 24.5201 27.001 23.7923 27.6824C23.0967 28.3336 22.1668 28.2222 21.4148 28.1316C20.8824 28.0681 20.331 27.9999 20.1112 28.2057C19.9352 28.3705 19.9789 28.8015 20.0559 29.3966C20.1575 30.0744 20.2844 31.0271 19.5807 31.6859Z" fill="#F9AF38"/>
<path d="M33.8661 33.811C28.1214 39.1895 21.4678 41.1615 20.1289 41.366C18.8637 41.5534 17.7116 41.3727 16.8001 40.8398C15.7594 40.2327 15.0777 39.1842 14.8846 37.8887C14.6499 36.3318 15.1984 34.7541 16.3497 33.6761C17.0572 33.0138 17.9351 32.5889 18.8969 32.4377C19.099 32.4056 24.0728 31.5717 28.0986 27.8026C30.4692 25.5831 32.0381 22.7799 32.7609 19.4727C32.971 18.5194 33.4526 17.6636 34.1643 16.9973C35.316 15.9191 36.9221 15.4717 38.4602 15.8083C39.7331 16.0856 40.722 16.7491 41.3169 17.7211C41.8933 18.6656 42.0554 19.8324 41.7775 21.0976C40.4884 26.9661 37.2159 30.6748 33.8661 33.811Z" fill="#F4A360"/>
<path d="M34.6319 34.6374C27.8516 40.9854 20.3557 42.4689 20.2809 42.4831C18.7697 42.7108 17.3639 42.4804 16.226 41.8138C14.8822 41.0243 14.0081 39.6901 13.7651 38.0568C13.475 36.1343 14.1515 34.1909 15.5752 32.8579C16.4499 32.039 17.5316 31.5107 18.7029 31.3304C18.7452 31.3249 23.5388 30.5283 27.3234 26.9851C29.5216 24.927 30.9783 22.3196 31.6539 19.234C31.9112 18.0577 32.5106 17.0016 33.3888 16.1794C34.8125 14.8465 36.7962 14.2992 38.6948 14.7151C40.2745 15.0582 41.5106 15.8964 42.269 17.1393C43.0016 18.3398 43.2088 19.793 42.8688 21.3418C41.5249 27.5075 38.1157 31.3757 34.6319 34.6374ZM17.1117 34.4983C16.2335 35.3205 15.8104 36.527 15.98 37.7256C16.2624 39.6132 17.7835 40.583 19.9499 40.2591C20.0148 40.2489 26.8792 38.8098 33.088 32.9968C36.3043 29.9856 39.448 26.4317 40.667 20.8628C40.8868 19.8636 40.766 18.9645 40.3166 18.2638C39.8817 17.5858 39.1539 17.1196 38.2104 16.9144C37.0323 16.6588 35.803 16.9985 34.9213 17.824C34.3758 18.3348 34.0038 18.9894 33.8457 19.7171C33.0732 23.2536 31.3942 26.2526 28.856 28.629C24.6959 32.5238 19.6198 33.46 19.0546 33.5541C18.3275 33.6636 17.654 33.9905 17.1117 34.4983Z" fill="#4C2F1B"/>
<path d="M24.8597 37.3491C24.7437 37.4578 24.5827 37.5184 24.4133 37.4976C24.105 37.4642 23.8813 37.1859 23.9189 36.8733C24.1004 35.2718 22.7991 34.4511 22.7459 34.4188C22.48 34.255 22.3987 33.9117 22.5588 33.6422C22.7226 33.3765 23.0627 33.2907 23.3318 33.4503C23.4154 33.4995 25.309 34.6648 25.0412 36.9991C25.0178 37.1413 24.9555 37.2595 24.8597 37.3491ZM32.5401 32.1073C32.4683 32.1746 32.3777 32.2219 32.2759 32.2495C31.9714 32.317 31.6721 32.1253 31.6052 31.8212C31.2523 30.2026 29.8469 30.0717 29.8355 30.0673C29.5266 30.0416 29.2955 29.7709 29.3215 29.462C29.3471 29.1528 29.6183 28.9218 29.9272 28.9475C30.6994 29.0113 32.2821 29.6434 32.7052 31.5781C32.7485 31.7768 32.68 31.9763 32.5401 32.1073Z" fill="#4C2F1B"/>
<path d="M38.3708 24.5046C38.3066 24.5646 38.2277 24.6082 38.1415 24.6363C37.8408 24.7234 37.5329 24.547 37.4458 24.2459C37.0372 22.7998 35.4749 22.8302 35.4093 22.8319C35.0994 22.8374 34.84 22.6004 34.8269 22.2899C34.8139 21.9801 35.0589 21.7204 35.3691 21.7074C36.238 21.6735 38.0131 22.0952 38.5323 23.9399C38.5877 24.1509 38.5187 24.366 38.3708 24.5046Z" fill="#4C2F1B"/>
<path d="M39.6893 9.24596C39.5855 9.34311 39.4552 9.41258 39.3148 9.44673L37.9253 9.77349C37.4995 9.87173 37.0704 9.6221 36.9489 9.20348L36.5638 7.87018C36.477 7.56952 36.5649 7.25449 36.7928 7.04114C37.0568 6.79398 37.4456 6.7448 37.7572 6.92507L39.5324 7.93163C39.7607 8.063 39.9118 8.28833 39.9455 8.54923C39.975 8.80626 39.8811 9.06641 39.6893 9.24596Z" fill="#FF6C4A"/>
<path d="M37.1741 7.4487C37.2502 7.37747 37.3669 7.35036 37.4772 7.41202L39.2522 8.41823C39.4155 8.51251 39.4241 8.722 39.3042 8.83425C39.2723 8.86412 39.2328 8.88594 39.1862 8.90004L37.7967 9.2268C37.6602 9.25734 37.5273 9.17933 37.4888 9.05038L37.1036 7.70928C37.0757 7.60785 37.1061 7.51238 37.1741 7.4487ZM36.4038 6.62591C36.0199 6.98533 35.8744 7.51856 36.0162 8.02275L36.4016 9.35571C36.6066 10.063 37.3319 10.4856 38.0501 10.3154L39.4396 9.9886C39.6775 9.93078 39.8946 9.81761 40.0706 9.65284C40.3907 9.35316 40.5526 8.9091 40.4971 8.47395C40.4456 8.04232 40.1836 7.65071 39.8036 7.43664L38.0283 6.43008C37.5043 6.13457 36.8476 6.21037 36.4038 6.62591Z" fill="#4C2F1B"/>
<path d="M7.81339 36.9466C7.62162 37.1261 7.35585 37.2027 7.09773 37.1519C6.83996 37.1007 6.62867 36.939 6.50864 36.6991L5.62104 34.8614C5.46551 34.5351 5.53631 34.1539 5.80415 33.9032C6.03203 33.6898 6.35183 33.6224 6.64647 33.7291L7.95154 34.2012C8.36058 34.3499 8.58245 34.7949 8.45608 35.213L8.03864 36.5779C7.99505 36.7239 7.91751 36.8491 7.81339 36.9466Z" fill="#FF6C4A"/>
<path d="M6.1892 34.3223C6.25721 34.2586 6.35086 34.2307 6.4542 34.2687L7.75891 34.7411C7.88505 34.788 7.95776 34.9296 7.91469 35.0599L7.49725 36.4249C7.48043 36.4709 7.45574 36.5085 7.42384 36.5383C7.30394 36.6506 7.09547 36.6282 7.01213 36.4591L6.12453 34.6214C6.07804 34.5085 6.11312 34.3935 6.1892 34.3223ZM5.41886 33.4995C4.97503 33.915 4.84871 34.5657 5.11665 35.1161L6.00424 36.9538C6.19647 37.3509 6.56638 37.6343 6.99369 37.714C7.42879 37.7944 7.87835 37.6653 8.19808 37.366C8.37407 37.2012 8.50512 36.9891 8.57463 36.7584L8.99207 35.3935C9.20888 34.6876 8.83557 33.9362 8.13876 33.6887L6.83404 33.2164C6.3444 33.03 5.80275 33.1401 5.41886 33.4995Z" fill="#4C2F1B"/>
</g>
<defs>
<clipPath id="clip0_2_3087">
<rect width="44.9726" height="25.6986" fill="white" transform="translate(0.611328 31.2856) rotate(-43.1142)"/>
</clipPath>
</defs>
</svg>
