<svg width="19" height="15" viewBox="0 0 19 15" fill="none" xmlns="http://www.w3.org/2000/svg">
<path fill-rule="evenodd" clip-rule="evenodd" d="M0.634658 4.12783C0.362943 6.53902 0.375055 9.31992 0.753149 11.7213C0.962357 13.0501 2.0978 14.0687 3.49939 14.1851L4.96418 14.3067C8.01847 14.5603 11.09 14.5603 14.1443 14.3067L15.6091 14.1851C17.0107 14.0687 18.1462 13.0501 18.3554 11.7213C18.7335 9.31991 18.7456 6.53918 18.4739 4.12797C18.4388 3.84844 18.3992 3.56928 18.3554 3.29058C18.1462 1.96183 17.0107 0.943178 15.6091 0.826812L14.1443 0.705199C11.09 0.45162 8.01847 0.45162 4.96418 0.7052L3.49939 0.826813C2.0978 0.943178 0.962357 1.96183 0.753149 3.29058C0.709277 3.56923 0.66978 3.84834 0.634658 4.12783ZM5.09017 2.08951C8.06063 1.84289 11.0479 1.84289 14.0183 2.08951L15.4831 2.21112C16.2148 2.27186 16.8075 2.8036 16.9167 3.49721C16.928 3.56924 16.9391 3.64131 16.9498 3.7134L11.5561 6.57531C10.3111 7.2359 8.79732 7.2359 7.55235 6.57531L2.15873 3.71344C2.16946 3.64133 2.1805 3.56925 2.19184 3.49721C2.30105 2.8036 2.89375 2.27186 3.62538 2.21112L5.09017 2.08951ZM17.1278 5.2085C17.3159 7.30924 17.2456 9.42581 16.9167 11.5147C16.8075 12.2083 16.2148 12.74 15.4831 12.8008L14.0183 12.9224C11.0479 13.169 8.06063 13.169 5.09017 12.9224L3.62538 12.8008C2.89375 12.74 2.30105 12.2083 2.19184 11.5147C1.86295 9.42582 1.79258 7.30926 1.98071 5.20854L6.8458 7.78998C8.53018 8.68372 10.5783 8.68372 12.2626 7.78998L17.1278 5.2085Z" fill="#A2A3A6"/>
</svg>
