<svg width="893" height="280" viewBox="0 0 893 280" fill="none" xmlns="http://www.w3.org/2000/svg">
<g opacity="0.25">
<path d="M147.318 160.313C143.434 164.094 138.145 166.393 132.31 166.35C126.513 166.307 121.224 163.965 117.282 160.142" stroke="#1C186C" stroke-width="4.63957" stroke-linecap="round" stroke-linejoin="round"/>
<path d="M118.22 169.013C122.416 171.806 127.236 173.396 132.349 173.439C138.341 173.481 143.903 171.376 148.528 167.724C150.402 166.242 150.929 163.342 149.719 161.108L148.45 158.766L143.2 149.228C143.2 149.228 139.473 142.44 135.96 136.038C134.262 132.945 130.32 132.902 128.641 135.952L116.151 158.594L114.921 160.829C113.711 163.041 114.258 165.984 116.17 167.488C116.814 168.046 117.517 168.541 118.22 169.013Z" stroke="#1C186C" stroke-width="4.63957" stroke-linecap="round" stroke-linejoin="round"/>
<path d="M125.344 155.866C124.875 155.651 124.348 155.651 123.88 155.866C123.626 155.974 123.431 156.124 123.236 156.317C122.885 156.725 122.67 157.263 122.67 157.821C122.67 158.401 122.865 158.917 123.236 159.325C123.607 159.733 124.075 159.948 124.602 159.948C125.129 159.948 125.597 159.733 125.968 159.325C126.339 158.917 126.534 158.38 126.534 157.821C126.534 157.263 126.319 156.725 125.968 156.317C125.793 156.102 125.578 155.952 125.344 155.866Z" fill="#201D67"/>
<path d="M133.033 157.971C132.565 157.756 132.038 157.756 131.569 157.971C131.335 158.079 131.12 158.229 130.925 158.422C130.574 158.83 130.359 159.368 130.359 159.926C130.359 160.506 130.555 161.022 130.925 161.43C131.296 161.838 131.765 162.053 132.291 162.053C132.818 162.053 133.287 161.838 133.658 161.43C134.028 161.022 134.224 160.506 134.224 159.926C134.224 159.368 134.009 158.83 133.658 158.422C133.482 158.229 133.287 158.079 133.033 157.971Z" fill="#201D67"/>
<path d="M141.387 156.296C140.665 155.501 139.377 155.501 138.655 156.296C138.304 156.704 138.089 157.241 138.089 157.8C138.089 158.38 138.284 158.895 138.655 159.303C139.026 159.711 139.494 159.926 140.021 159.926C140.275 159.926 140.528 159.862 140.743 159.754C140.977 159.647 141.192 159.497 141.387 159.303C141.758 158.895 141.953 158.38 141.953 157.8C141.934 157.263 141.719 156.704 141.387 156.296Z" fill="#201D67"/>
<path d="M137.933 148.519C137.835 148.24 137.698 148.025 137.523 147.81C136.801 147.015 135.513 147.015 134.791 147.81C134.615 148.025 134.478 148.24 134.381 148.519C134.283 148.777 134.225 149.056 134.225 149.314C134.225 149.593 134.283 149.872 134.381 150.109C134.478 150.366 134.615 150.603 134.791 150.817C135.161 151.226 135.63 151.44 136.157 151.44C136.41 151.44 136.664 151.376 136.879 151.269C137.113 151.161 137.328 151.011 137.523 150.817C137.894 150.409 138.089 149.894 138.089 149.314C138.089 149.056 138.03 148.777 137.933 148.519Z" fill="#201D67"/>
<path d="M130.224 148.519C130.126 148.261 129.99 148.025 129.814 147.81C129.072 147.015 127.784 147.015 127.082 147.81C126.906 148.025 126.769 148.24 126.672 148.519C126.574 148.777 126.516 149.056 126.516 149.314C126.516 149.894 126.711 150.409 127.082 150.817C127.277 151.011 127.491 151.161 127.726 151.269C127.96 151.376 128.214 151.44 128.467 151.44C128.994 151.44 129.463 151.226 129.833 150.817C130.009 150.603 130.146 150.366 130.243 150.109C130.36 149.851 130.399 149.572 130.399 149.314C130.38 149.056 130.341 148.777 130.224 148.519Z" fill="#201D67"/>
<path d="M130.945 142.354C131.316 142.763 131.784 142.977 132.311 142.977C132.565 142.977 132.818 142.913 133.033 142.805C133.267 142.698 133.482 142.548 133.677 142.354C133.853 142.14 133.989 141.903 134.087 141.645C134.185 141.388 134.243 141.108 134.243 140.851C134.243 140.271 134.028 139.755 133.677 139.347C133.131 138.767 132.291 138.552 131.569 138.896C131.316 139.003 131.12 139.154 130.925 139.347C130.574 139.755 130.359 140.292 130.359 140.851C130.359 141.13 130.418 141.409 130.516 141.645C130.633 141.903 130.769 142.14 130.945 142.354Z" fill="#201D67"/>
<path d="M612.854 65.3194C610.493 70.8188 605.419 74.6212 599.525 74.6212C591.387 74.6212 584.771 67.3387 584.771 58.3807C584.771 50.4108 590.001 43.7728 596.91 42.3979C597.144 47.2314 600.364 51.2056 604.579 52.0864C604.501 52.6664 604.443 53.2679 604.443 53.8694C604.443 59.4977 608.053 64.2023 612.854 65.3194Z" stroke="#1C186C" stroke-width="4.63957" stroke-linecap="round" stroke-linejoin="round"/>
<path d="M593.416 49.5303C592.226 49.5303 591.25 50.6044 591.25 51.9148C591.25 53.2252 592.226 54.2993 593.416 54.2993C594.607 54.2993 595.583 53.2252 595.583 51.9148C595.583 50.5829 594.607 49.5303 593.416 49.5303Z" fill="#201D67"/>
<path d="M588.635 37.0923C587.445 37.0923 586.469 38.1664 586.469 39.4768C586.469 40.7872 587.445 41.8613 588.635 41.8613C589.826 41.8613 590.801 40.7872 590.801 39.4768C590.782 38.1449 589.826 37.0923 588.635 37.0923Z" fill="#201D67"/>
<path d="M599.72 56.855C598.529 56.855 597.554 57.9291 597.554 59.2395C597.554 60.5499 598.529 61.624 599.72 61.624C600.91 61.624 601.886 60.5499 601.886 59.2395C601.886 57.9076 600.91 56.855 599.72 56.855Z" fill="#201D67"/>
<path d="M601.594 66.415C601.594 66.415 601.184 66.6728 600.658 67.0165C600.15 67.3388 599.721 67.618 599.721 67.618C599.721 67.618 600.131 67.3603 600.658 67.0165C601.165 66.6728 601.594 66.415 601.594 66.415Z" stroke="#1C186C" stroke-width="4.63957" stroke-linecap="round" stroke-linejoin="round"/>
<path d="M591.659 60.25C591.659 60.25 592.108 60.4648 592.654 60.7226C593.201 60.9804 593.65 61.1952 593.65 61.1952C593.65 61.1952 593.201 60.9804 592.654 60.7226C592.108 60.4648 591.659 60.25 591.659 60.25Z" stroke="#1C186C" stroke-width="4.63957" stroke-linecap="round" stroke-linejoin="round"/>
<path d="M581.979 46.7376C581.979 46.7376 582.331 46.3724 582.76 45.9213C583.189 45.4702 583.541 45.105 583.541 45.105C583.541 45.105 583.189 45.4702 582.76 45.9213C582.331 46.3724 581.979 46.7376 581.979 46.7376Z" stroke="#1C186C" stroke-width="4.63957" stroke-linecap="round" stroke-linejoin="round"/>
<path d="M580.007 58.7031C577.978 56.1682 576.748 52.86 576.748 49.2295C576.748 41.3026 582.583 34.8794 589.785 34.8794C595.601 34.8794 600.538 39.0684 602.217 44.8686" stroke="#1C186C" stroke-width="4.63957" stroke-linecap="round" stroke-linejoin="round"/>
<path d="M211.54 224.179C210.287 223.873 208.984 223.917 207.749 224.307C206.515 224.697 205.39 225.422 204.475 226.414C204.088 226.854 203.871 227.444 203.871 228.057C203.871 228.67 204.088 229.26 204.475 229.7L206.7 232.235" stroke="#1C186C" stroke-width="4.63957" stroke-linecap="round" stroke-linejoin="round"/>
<path d="M226.099 240.484C226.367 241.881 226.315 243.33 225.947 244.699C225.579 246.068 224.907 247.314 223.991 248.325C223.797 248.541 223.566 248.712 223.311 248.829C223.057 248.946 222.784 249.006 222.508 249.006C222.232 249.006 221.959 248.946 221.704 248.829C221.45 248.712 221.219 248.541 221.025 248.325L218.761 245.79" stroke="#1C186C" stroke-width="4.63957" stroke-linecap="round" stroke-linejoin="round"/>
<path d="M208.242 246.306C209.047 247.707 209.473 249.332 209.472 250.989C209.471 252.108 209.269 253.216 208.877 254.249C208.485 255.281 207.911 256.218 207.188 257.004C207.052 257.14 206.875 257.215 206.691 257.215C206.507 257.215 206.329 257.14 206.193 257.004C205.555 256.293 205.045 255.455 204.69 254.534C204.368 253.861 204.144 253.136 204.027 252.386C203.982 251.929 203.982 251.468 204.027 251.011C204.377 248.922 205.345 247.019 206.778 245.597C205.45 247.137 203.704 248.162 201.802 248.519C201.386 248.562 200.968 248.562 200.553 248.519C199.87 248.372 199.212 248.111 198.601 247.746C197.761 247.307 197.006 246.694 196.376 245.941C196.253 245.791 196.185 245.596 196.185 245.393C196.185 245.191 196.253 244.996 196.376 244.845C197.837 243.274 199.798 242.395 201.841 242.396C203.339 242.407 204.802 242.892 206.056 243.793" stroke="#1C186C" stroke-width="4.63957" stroke-linecap="round" stroke-linejoin="round"/>
<path d="M230.628 219.432C230.396 219.14 230.134 218.881 229.847 218.658C229.044 218.095 228.147 217.714 227.209 217.537C226.271 217.36 225.31 217.391 224.382 217.627C222.191 217.992 220.076 218.785 218.137 219.969C214.493 221.906 211.431 224.956 209.316 228.755C207.441 232.574 206.38 236.813 206.213 241.15C206.213 241.451 205.881 243.707 206.096 243.857L208.262 246.306C208.399 246.542 210.428 246.306 210.702 246.198C214.661 246.085 218.543 244.959 222.04 242.912C225.51 240.656 228.305 237.333 230.081 233.352C231.799 229.421 233.75 223.17 230.628 219.432Z" stroke="#1C186C" stroke-width="4.63957" stroke-linecap="round" stroke-linejoin="round"/>
<path d="M217.042 221.924C217.834 224.856 219.26 227.532 221.199 229.722C223.146 231.907 225.552 233.531 228.205 234.448" stroke="#1C186C" stroke-width="4.63957" stroke-linecap="round" stroke-linejoin="round"/>
<path d="M225.475 221.988C225.293 221.78 225.075 221.615 224.833 221.502C224.592 221.389 224.332 221.331 224.07 221.331C223.807 221.331 223.548 221.389 223.306 221.502C223.065 221.615 222.847 221.78 222.665 221.988C222.399 222.291 222.22 222.674 222.151 223.089C222.081 223.503 222.124 223.931 222.274 224.319C222.423 224.707 222.674 225.038 222.993 225.27C223.312 225.503 223.687 225.627 224.07 225.627C224.453 225.627 224.827 225.503 225.147 225.27C225.466 225.038 225.716 224.707 225.866 224.319C226.016 223.931 226.058 223.503 225.989 223.089C225.919 222.674 225.741 222.291 225.475 221.988V221.988Z" fill="#201D67"/>
<path d="M409.182 235.072L417.203 259.368L425.224 235.072" stroke="#1C186C" stroke-width="4.63957" stroke-linecap="round" stroke-linejoin="round"/>
<path d="M429.244 233.976C428.912 233.976 428.62 233.998 428.346 234.041C426.2 234.427 425.907 236.189 423.214 236.189C420.189 236.189 420.189 233.976 417.203 233.976C414.178 233.976 414.178 236.189 411.192 236.189C408.498 236.189 408.225 234.449 406.059 234.041C405.805 233.998 405.493 233.976 405.161 233.976" stroke="#1C186C" stroke-width="4.63957" stroke-linecap="round" stroke-linejoin="round"/>
<path d="M427.235 230.668C427.235 231.828 427.078 232.988 426.747 234.041C424.893 234.428 424.658 236.189 422.355 236.189C419.76 236.189 419.76 233.977 417.203 233.977C414.608 233.977 414.608 236.189 412.051 236.189C409.748 236.189 409.494 234.449 407.66 234.041C407.348 232.988 407.172 231.828 407.172 230.668C407.172 224.567 411.661 219.626 417.203 219.626C422.746 219.626 427.235 224.567 427.235 230.668Z" stroke="#1C186C" stroke-width="4.63957" stroke-linecap="round" stroke-linejoin="round"/>
<path d="M427.235 237.286H407.172" stroke="#1C186C" stroke-width="4.63957" stroke-linecap="round" stroke-linejoin="round"/>
<path d="M615.683 238.206H601.241V240.483H615.683V238.206Z" stroke="#1C186C" stroke-width="4.63957" stroke-linecap="round" stroke-linejoin="round"/>
<path d="M624.427 220.033C625.754 220.033 626.769 221.408 626.456 222.825C624.407 231.655 617.128 238.185 608.463 238.185C599.797 238.185 592.518 231.655 590.469 222.825C590.137 221.408 591.152 220.033 592.498 220.033H624.427V220.033Z" stroke="#1C186C" stroke-width="4.63957" stroke-linecap="round" stroke-linejoin="round"/>
<path d="M600.675 220.032C602.949 220.032 604.792 218.003 604.792 215.5C604.792 212.996 602.949 210.967 600.675 210.967C598.4 210.967 596.557 212.996 596.557 215.5C596.557 218.003 598.4 220.032 600.675 220.032Z" stroke="#1C186C" stroke-width="4.63957" stroke-linecap="round" stroke-linejoin="round"/>
<path d="M616.249 219.69C618.523 219.69 620.367 217.661 620.367 215.157C620.367 212.654 618.523 210.625 616.249 210.625C613.974 210.625 612.131 212.654 612.131 215.157C612.131 217.661 613.974 219.69 616.249 219.69Z" stroke="#1C186C" stroke-width="4.63957" stroke-linecap="round" stroke-linejoin="round"/>
<path d="M609.107 219.712C610.821 219.712 612.21 218.182 612.21 216.296C612.21 214.41 610.821 212.88 609.107 212.88C607.393 212.88 606.004 214.41 606.004 216.296C606.004 218.182 607.393 219.712 609.107 219.712Z" stroke="#1C186C" stroke-width="4.63957" stroke-linecap="round" stroke-linejoin="round"/>
<path d="M598.431 211.268L591.952 204.136" stroke="#1C186C" stroke-width="4.63957" stroke-linecap="round" stroke-linejoin="round"/>
<path d="M593.006 226.801H623.92" stroke="#1C186C" stroke-width="4.63957" stroke-linecap="round" stroke-linejoin="round"/>
<path d="M532.349 132.085H497.22C497.22 135.651 499.835 138.53 503.075 138.53H526.494C529.734 138.53 532.349 135.651 532.349 132.085Z" stroke="#1C186C" stroke-width="4.63957" stroke-linecap="round" stroke-linejoin="round"/>
<path d="M514.785 112.751C506.159 112.751 499.172 120.442 499.172 129.937V132.085H530.398V129.937C530.398 120.442 523.411 112.751 514.785 112.751Z" stroke="#1C186C" stroke-width="4.63957" stroke-linecap="round" stroke-linejoin="round"/>
<path d="M514.784 114.363C516.671 114.363 518.2 112.68 518.2 110.604C518.2 108.527 516.671 106.844 514.784 106.844C512.898 106.844 511.369 108.527 511.369 110.604C511.369 112.68 512.898 114.363 514.784 114.363Z" fill="#201D67"/>
<path d="M392.257 102.113C397.663 102.478 403.069 105.078 407.343 109.847C411.578 114.573 413.9 120.588 414.252 126.603" stroke="#1C186C" stroke-width="4.63957" stroke-linecap="round" stroke-linejoin="round"/>
<path d="M416.474 127.999L414.074 128.644L389.717 135.196C386.439 136.076 383.57 132.854 384.39 129.202L386.107 121.468L386.224 120.974L387.727 114.25L387.863 113.606L390.4 102.328L391.025 99.5782C391.611 96.9359 393.933 95.2388 396.314 95.6684C402.169 96.721 407.672 99.6856 412.063 104.584C416.435 109.438 419.07 115.561 420.026 122.07C420.416 124.734 418.855 127.355 416.474 127.999Z" stroke="#1C186C" stroke-width="4.63957" stroke-linecap="round" stroke-linejoin="round"/>
<path d="M401.76 121.124C403.485 121.124 404.883 119.566 404.883 117.644C404.883 115.722 403.485 114.164 401.76 114.164C400.036 114.164 398.638 115.722 398.638 117.644C398.638 119.566 400.036 121.124 401.76 121.124Z" stroke="#1C186C" stroke-width="4.63957" stroke-linecap="round" stroke-linejoin="round"/>
<path d="M390.205 119.815C389.132 121.018 387.59 121.405 386.224 120.932L388.175 112.167C388.917 112.361 389.619 112.747 390.205 113.392C391.805 115.175 391.805 118.054 390.205 119.815Z" stroke="#1C186C" stroke-width="4.63957" stroke-linecap="round" stroke-linejoin="round"/>
<path d="M392.665 132.06C392.372 130.814 392.665 129.439 393.523 128.472C394.831 127.011 396.939 127.011 398.246 128.472C398.676 128.945 398.969 129.525 399.105 130.148" stroke="#1C186C" stroke-width="4.63957" stroke-linecap="round" stroke-linejoin="round"/>
<path d="M314.062 134.039L294.078 156.037C291.951 158.379 291.951 162.16 294.078 164.501C296.205 166.843 299.64 166.843 301.767 164.501L321.752 142.503C323.879 140.162 323.879 136.381 321.752 134.039C319.625 131.698 316.19 131.698 314.062 134.039Z" stroke="#1C186C" stroke-width="4.63957" stroke-linecap="round" stroke-linejoin="round"/>
<path d="M298.273 158.959C300.576 156.424 301.396 157.326 303.718 154.791C306.021 152.256 305.202 151.354 307.505 148.798C309.808 146.263 310.647 147.165 312.95 144.63C315.253 142.095 314.433 141.172 316.736 138.637" stroke="#1C186C" stroke-width="4.63957" stroke-linecap="round" stroke-linejoin="round"/>
<path d="M307.153 131.505L291.774 148.433C289.217 151.247 289.217 155.78 291.774 158.594L316.364 131.526C313.827 128.691 309.69 128.691 307.153 131.505Z" stroke="#1C186C" stroke-width="4.63957" stroke-linecap="round" stroke-linejoin="round"/>
<path d="M308.676 167.036L324.054 150.108C326.611 147.294 326.611 142.761 324.054 139.947L299.464 167.014C302.001 169.85 306.138 169.85 308.676 167.036Z" stroke="#1C186C" stroke-width="4.63957" stroke-linecap="round" stroke-linejoin="round"/>
<path d="M210.333 85.2972H190.816C187.343 85.2972 184.532 82.2038 184.532 78.3799V74.2554H216.617V78.3799C216.617 82.2038 213.807 85.2972 210.333 85.2972Z" stroke="#1C186C" stroke-width="4.63957" stroke-linecap="round" stroke-linejoin="round"/>
<path d="M215.622 67.6387H185.528C183.869 67.6387 182.522 69.1209 182.522 70.9469C182.522 72.7729 183.869 74.2552 185.528 74.2552H215.622C217.281 74.2552 218.627 72.7729 218.627 70.9469C218.627 69.1209 217.281 67.6387 215.622 67.6387Z" stroke="#1C186C" stroke-width="4.63957" stroke-linecap="round" stroke-linejoin="round"/>
<path d="M201.609 49.9805H199.54C191.246 49.9805 184.532 57.3703 184.532 66.5002V67.6388H216.617V66.5002C216.617 57.3703 209.903 49.9805 201.609 49.9805Z" stroke="#1C186C" stroke-width="4.63957" stroke-linecap="round" stroke-linejoin="round"/>
<path d="M184.317 74.7925C185.079 75.6947 185.625 76.9192 187.05 76.9192C188.474 76.9192 189.021 75.6947 189.782 74.7925" stroke="#1C186C" stroke-width="4.63957" stroke-linecap="round" stroke-linejoin="round"/>
<path d="M202.643 74.7925C203.404 75.6947 203.95 76.9192 205.375 76.9192C206.819 76.9192 207.365 75.6947 208.127 74.7925" stroke="#1C186C" stroke-width="4.63957" stroke-linecap="round" stroke-linejoin="round"/>
<path d="M214.566 76.8977C213.142 76.8977 212.595 75.6732 211.834 74.771" stroke="#1C186C" stroke-width="4.63957" stroke-linecap="round" stroke-linejoin="round"/>
<path d="M193.489 74.7925C194.25 75.6947 194.797 76.9192 196.222 76.9192C197.646 76.9192 198.193 75.6947 198.954 74.7925" stroke="#1C186C" stroke-width="4.63957" stroke-linecap="round" stroke-linejoin="round"/>
<path d="M704.556 115.202C700.672 118.983 695.383 121.282 689.548 121.239C683.752 121.196 678.463 118.854 674.521 115.03" stroke="#1C186C" stroke-width="4.63957" stroke-linecap="round" stroke-linejoin="round"/>
<path d="M675.457 123.901C679.653 126.694 684.473 128.284 689.587 128.327C695.578 128.37 701.14 126.264 705.766 122.612C707.639 121.13 708.166 118.23 706.956 115.996L705.688 113.654L700.438 104.116C700.438 104.116 696.71 97.328 693.197 90.9263C691.499 87.8328 687.557 87.7899 685.879 90.8404L673.388 113.483L672.159 115.717C670.949 117.929 671.495 120.872 673.408 122.376C674.052 122.935 674.754 123.429 675.457 123.901Z" stroke="#1C186C" stroke-width="4.63957" stroke-linecap="round" stroke-linejoin="round"/>
<path d="M682.58 110.754C682.112 110.54 681.585 110.54 681.116 110.754C680.863 110.862 680.667 111.012 680.472 111.205C680.121 111.614 679.906 112.151 679.906 112.709C679.906 113.289 680.101 113.805 680.472 114.213C680.843 114.621 681.311 114.836 681.838 114.836C682.365 114.836 682.834 114.621 683.204 114.213C683.575 113.805 683.77 113.268 683.77 112.709C683.77 112.151 683.556 111.614 683.204 111.205C683.029 110.991 682.814 110.84 682.58 110.754Z" fill="#201D67"/>
<path d="M690.269 112.861C689.801 112.646 689.274 112.646 688.806 112.861C688.572 112.969 688.357 113.119 688.162 113.312C687.81 113.721 687.596 114.258 687.596 114.816C687.596 115.396 687.791 115.912 688.162 116.32C688.532 116.728 689.001 116.943 689.528 116.943C690.055 116.943 690.523 116.728 690.894 116.32C691.265 115.912 691.46 115.396 691.46 114.816C691.46 114.258 691.245 113.721 690.894 113.312C690.718 113.119 690.523 112.969 690.269 112.861Z" fill="#201D67"/>
<path d="M698.623 111.185C697.901 110.39 696.613 110.39 695.891 111.185C695.54 111.593 695.325 112.13 695.325 112.688C695.325 113.268 695.52 113.784 695.891 114.192C696.262 114.6 696.73 114.815 697.257 114.815C697.511 114.815 697.765 114.751 697.979 114.643C698.214 114.536 698.428 114.385 698.623 114.192C698.994 113.784 699.189 113.268 699.189 112.688C699.17 112.151 698.955 111.593 698.623 111.185Z" fill="#201D67"/>
<path d="M695.168 103.409C695.07 103.13 694.934 102.915 694.758 102.7C694.036 101.905 692.748 101.905 692.026 102.7C691.85 102.915 691.714 103.13 691.616 103.409C691.519 103.667 691.46 103.946 691.46 104.204C691.46 104.483 691.519 104.762 691.616 104.999C691.714 105.256 691.85 105.493 692.026 105.708C692.397 106.116 692.865 106.331 693.392 106.331C693.646 106.331 693.899 106.266 694.114 106.159C694.348 106.051 694.563 105.901 694.758 105.708C695.129 105.299 695.324 104.784 695.324 104.204C695.324 103.946 695.266 103.667 695.168 103.409Z" fill="#201D67"/>
<path d="M687.458 103.409C687.36 103.151 687.224 102.915 687.048 102.7C686.307 101.905 685.019 101.905 684.316 102.7C684.14 102.915 684.004 103.13 683.906 103.409C683.809 103.667 683.75 103.946 683.75 104.204C683.75 104.784 683.945 105.299 684.316 105.708C684.511 105.901 684.726 106.051 684.96 106.159C685.194 106.266 685.448 106.331 685.702 106.331C686.229 106.331 686.697 106.116 687.068 105.708C687.243 105.493 687.38 105.256 687.478 104.999C687.595 104.741 687.634 104.462 687.634 104.204C687.614 103.946 687.575 103.667 687.458 103.409Z" fill="#201D67"/>
<path d="M688.181 97.2425C688.552 97.6507 689.02 97.8655 689.547 97.8655C689.801 97.8655 690.055 97.8011 690.269 97.6937C690.504 97.5863 690.718 97.4359 690.913 97.2425C691.089 97.0277 691.226 96.7914 691.323 96.5336C691.421 96.2758 691.479 95.9966 691.479 95.7388C691.479 95.1588 691.265 94.6432 690.913 94.2351C690.367 93.655 689.528 93.4402 688.806 93.7839C688.552 93.8913 688.357 94.0417 688.162 94.2351C687.81 94.6432 687.596 95.1803 687.596 95.7388C687.596 96.0181 687.654 96.2973 687.752 96.5336C687.869 96.7914 688.006 97.0277 688.181 97.2425Z" fill="#201D67"/>
<path d="M519.175 275.844C516.813 281.344 511.739 285.146 505.845 285.146C497.707 285.146 491.091 277.864 491.091 268.906C491.091 260.936 496.321 254.298 503.23 252.923C503.464 257.756 506.684 261.731 510.9 262.611C510.822 263.191 510.763 263.793 510.763 264.394C510.763 270.023 514.374 274.727 519.175 275.844Z" stroke="#1C186C" stroke-width="4.63957" stroke-linecap="round" stroke-linejoin="round"/>
<path d="M499.736 260.055C498.545 260.055 497.569 261.129 497.569 262.44C497.569 263.75 498.545 264.824 499.736 264.824C500.926 264.824 501.902 263.75 501.902 262.44C501.902 261.108 500.926 260.055 499.736 260.055Z" fill="#201D67"/>
<path d="M494.954 247.616C493.764 247.616 492.788 248.69 492.788 250.001C492.788 251.311 493.764 252.385 494.954 252.385C496.145 252.385 497.121 251.311 497.121 250.001C497.101 248.669 496.145 247.616 494.954 247.616Z" fill="#201D67"/>
<path d="M506.039 267.381C504.849 267.381 503.873 268.455 503.873 269.766C503.873 271.076 504.849 272.15 506.039 272.15C507.23 272.15 508.206 271.076 508.206 269.766C508.206 268.434 507.23 267.381 506.039 267.381Z" fill="#201D67"/>
<path d="M507.914 276.938C507.914 276.938 507.504 277.196 506.977 277.54C506.469 277.862 506.04 278.141 506.04 278.141C506.04 278.141 506.45 277.884 506.977 277.54C507.484 277.196 507.914 276.938 507.914 276.938Z" stroke="#1C186C" stroke-width="4.63957" stroke-linecap="round" stroke-linejoin="round"/>
<path d="M497.981 270.774C497.981 270.774 498.43 270.989 498.977 271.247C499.523 271.505 499.972 271.72 499.972 271.72C499.972 271.72 499.523 271.505 498.977 271.247C498.43 270.989 497.981 270.774 497.981 270.774Z" stroke="#1C186C" stroke-width="4.63957" stroke-linecap="round" stroke-linejoin="round"/>
<path d="M488.301 257.263C488.301 257.263 488.652 256.897 489.081 256.446C489.511 255.995 489.862 255.63 489.862 255.63C489.862 255.63 489.511 255.995 489.081 256.446C488.652 256.897 488.301 257.263 488.301 257.263Z" stroke="#1C186C" stroke-width="4.63957" stroke-linecap="round" stroke-linejoin="round"/>
<path d="M486.33 269.228C484.3 266.694 483.07 263.385 483.07 259.755C483.07 251.828 488.906 245.405 496.107 245.405C501.923 245.405 506.861 249.594 508.539 255.394" stroke="#1C186C" stroke-width="4.63957" stroke-linecap="round" stroke-linejoin="round"/>
<path d="M777.47 179.069C776.216 178.763 774.913 178.806 773.679 179.197C772.445 179.587 771.319 180.311 770.405 181.303C770.017 181.744 769.801 182.333 769.801 182.947C769.801 183.56 770.017 184.149 770.405 184.59L772.63 187.125" stroke="#1C186C" stroke-width="4.63957" stroke-linecap="round" stroke-linejoin="round"/>
<path d="M792.029 195.373C792.297 196.77 792.244 198.218 791.876 199.587C791.508 200.956 790.836 202.203 789.921 203.214C789.727 203.43 789.496 203.601 789.241 203.718C788.986 203.834 788.713 203.895 788.438 203.895C788.162 203.895 787.889 203.834 787.634 203.718C787.379 203.601 787.148 203.43 786.954 203.214L784.69 200.679" stroke="#1C186C" stroke-width="4.63957" stroke-linecap="round" stroke-linejoin="round"/>
<path d="M774.172 201.195C774.977 202.597 775.403 204.221 775.401 205.879C775.401 206.997 775.199 208.105 774.807 209.138C774.415 210.17 773.841 211.107 773.118 211.894C772.982 212.029 772.804 212.105 772.62 212.105C772.436 212.105 772.259 212.029 772.123 211.894C771.484 211.182 770.974 210.344 770.62 209.423C770.297 208.75 770.073 208.025 769.956 207.275C769.912 206.818 769.912 206.357 769.956 205.9C770.307 203.811 771.274 201.908 772.708 200.486C771.379 202.026 769.633 203.051 767.732 203.408C767.316 203.452 766.898 203.452 766.482 203.408C765.8 203.261 765.142 203.001 764.531 202.635C763.691 202.196 762.936 201.583 762.306 200.83C762.183 200.68 762.114 200.485 762.114 200.282C762.114 200.08 762.183 199.885 762.306 199.735C763.766 198.163 765.728 197.284 767.771 197.286C769.268 197.296 770.732 197.781 771.986 198.682" stroke="#1C186C" stroke-width="4.63957" stroke-linecap="round" stroke-linejoin="round"/>
<path d="M796.557 174.321C796.326 174.03 796.064 173.77 795.777 173.548C794.974 172.985 794.077 172.603 793.139 172.426C792.2 172.249 791.239 172.28 790.312 172.516C788.12 172.881 786.005 173.674 784.067 174.858C780.422 176.796 777.36 179.845 775.246 183.644C773.37 187.463 772.309 191.702 772.143 196.039C772.143 196.34 771.811 198.596 772.025 198.746L774.192 201.195C774.328 201.431 776.358 201.195 776.631 201.088C780.591 200.974 784.473 199.849 787.97 197.801C791.44 195.545 794.235 192.222 796.011 188.241C797.728 184.31 799.68 178.059 796.557 174.321Z" stroke="#1C186C" stroke-width="4.63957" stroke-linecap="round" stroke-linejoin="round"/>
<path d="M782.975 176.813C783.766 179.745 785.193 182.421 787.132 184.611C789.079 186.797 791.485 188.42 794.138 189.338" stroke="#1C186C" stroke-width="4.63957" stroke-linecap="round" stroke-linejoin="round"/>
<path d="M791.405 176.877C791.223 176.669 791.004 176.504 790.763 176.391C790.521 176.278 790.262 176.22 789.999 176.22C789.737 176.22 789.477 176.278 789.236 176.391C788.995 176.504 788.776 176.669 788.594 176.877C788.329 177.181 788.15 177.563 788.08 177.978C788.011 178.392 788.054 178.82 788.203 179.208C788.353 179.596 788.603 179.927 788.923 180.16C789.242 180.392 789.617 180.516 789.999 180.516C790.382 180.516 790.757 180.392 791.076 180.16C791.396 179.927 791.646 179.596 791.796 179.208C791.945 178.82 791.988 178.392 791.919 177.978C791.849 177.563 791.67 177.181 791.405 176.877V176.877Z" fill="#201D67"/>
<path d="M294.235 264.802C299.641 265.167 305.047 267.767 309.321 272.536C313.556 277.262 315.879 283.277 316.23 289.292" stroke="#1C186C" stroke-width="4.63957" stroke-linecap="round" stroke-linejoin="round"/>
<path d="M318.453 290.688L316.052 291.332L291.696 297.885C288.417 298.765 285.548 295.543 286.368 291.891L288.085 284.157L288.203 283.663L289.705 276.939L289.842 276.295L292.379 265.017L293.004 262.267C293.589 259.625 295.911 257.928 298.292 258.357C304.147 259.41 309.651 262.375 314.042 267.272C318.414 272.127 321.048 278.25 322.005 284.759C322.395 287.423 320.834 290.044 318.453 290.688Z" stroke="#1C186C" stroke-width="4.63957" stroke-linecap="round" stroke-linejoin="round"/>
<path d="M303.738 283.815C305.462 283.815 306.86 282.257 306.86 280.335C306.86 278.413 305.462 276.855 303.738 276.855C302.013 276.855 300.615 278.413 300.615 280.335C300.615 282.257 302.013 283.815 303.738 283.815Z" stroke="#1C186C" stroke-width="4.63957" stroke-linecap="round" stroke-linejoin="round"/>
<path d="M292.184 282.503C291.111 283.706 289.569 284.093 288.203 283.62L290.155 274.855C290.896 275.049 291.599 275.435 292.184 276.08C293.785 277.863 293.785 280.742 292.184 282.503Z" stroke="#1C186C" stroke-width="4.63957" stroke-linecap="round" stroke-linejoin="round"/>
<path d="M857.729 251.38C863.134 251.746 868.54 254.345 872.815 259.114C877.05 263.84 879.372 269.855 879.723 275.87" stroke="#1C186C" stroke-width="4.63957" stroke-linecap="round" stroke-linejoin="round"/>
<path d="M881.948 277.267L879.547 277.911L855.191 284.463C851.912 285.344 849.043 282.122 849.863 278.47L851.581 270.736L851.698 270.242L853.2 263.518L853.337 262.874L855.874 251.595L856.499 248.846C857.084 246.203 859.407 244.506 861.788 244.936C867.642 245.989 873.146 248.953 877.537 253.851C881.909 258.706 884.543 264.828 885.5 271.338C885.89 274.001 884.329 276.622 881.948 277.267Z" stroke="#1C186C" stroke-width="4.63957" stroke-linecap="round" stroke-linejoin="round"/>
<path d="M867.234 270.392C868.958 270.392 870.357 268.834 870.357 266.912C870.357 264.99 868.958 263.432 867.234 263.432C865.509 263.432 864.111 264.99 864.111 266.912C864.111 268.834 865.509 270.392 867.234 270.392Z" stroke="#1C186C" stroke-width="4.63957" stroke-linecap="round" stroke-linejoin="round"/>
<path d="M855.68 269.083C854.606 270.286 853.064 270.672 851.698 270.2L853.65 261.435C854.391 261.628 855.094 262.015 855.68 262.66C857.28 264.443 857.28 267.321 855.68 269.083Z" stroke="#1C186C" stroke-width="4.63957" stroke-linecap="round" stroke-linejoin="round"/>
<path d="M858.138 281.327C857.846 280.081 858.138 278.706 858.997 277.74C860.305 276.279 862.412 276.279 863.72 277.74C864.149 278.212 864.442 278.792 864.579 279.415" stroke="#1C186C" stroke-width="4.63957" stroke-linecap="round" stroke-linejoin="round"/>
<path d="M875.644 88.9285L855.66 110.926C853.533 113.268 853.533 117.049 855.66 119.39C857.787 121.732 861.222 121.732 863.349 119.39L883.334 97.3925C885.461 95.0509 885.461 91.2701 883.334 88.9285C881.207 86.587 877.772 86.587 875.644 88.9285Z" stroke="#1C186C" stroke-width="4.63957" stroke-linecap="round" stroke-linejoin="round"/>
<path d="M859.855 113.847C862.158 111.312 862.978 112.214 865.3 109.679C867.603 107.145 866.784 106.242 869.087 103.686C871.39 101.151 872.229 102.053 874.532 99.5184C876.835 96.9835 876.015 96.0598 878.318 93.5249" stroke="#1C186C" stroke-width="4.63957" stroke-linecap="round" stroke-linejoin="round"/>
<path d="M868.736 86.3931L853.357 103.321C850.8 106.135 850.8 110.668 853.357 113.482L877.947 86.4146C875.41 83.5789 871.273 83.5789 868.736 86.3931Z" stroke="#1C186C" stroke-width="4.63957" stroke-linecap="round" stroke-linejoin="round"/>
<path d="M870.259 121.924L885.637 104.996C888.194 102.182 888.194 97.6491 885.637 94.835L861.047 121.902C863.584 124.738 867.721 124.738 870.259 121.924Z" stroke="#1C186C" stroke-width="4.63957" stroke-linecap="round" stroke-linejoin="round"/>
<path d="M121.943 278.164H91.8492C90.1904 278.164 88.8438 279.646 88.8438 281.472C88.8438 283.298 90.1904 284.781 91.8492 284.781H121.943C123.602 284.781 124.949 283.298 124.949 281.472C124.949 279.646 123.602 278.164 121.943 278.164Z" stroke="#1C186C" stroke-width="4.63957" stroke-linecap="round" stroke-linejoin="round"/>
<path d="M107.931 260.506H105.862C97.5681 260.506 90.8545 267.896 90.8545 277.026V278.165H122.939V277.026C122.939 267.896 116.226 260.506 107.931 260.506Z" stroke="#1C186C" stroke-width="4.63957" stroke-linecap="round" stroke-linejoin="round"/>
<path d="M787.125 40.1864H767.608C764.135 40.1864 761.324 37.0929 761.324 33.2691V29.1445H793.409V33.2691C793.409 37.0929 790.598 40.1864 787.125 40.1864Z" stroke="#1C186C" stroke-width="4.63957" stroke-linecap="round" stroke-linejoin="round"/>
<path d="M792.414 22.5269H762.32C760.661 22.5269 759.314 24.0091 759.314 25.8351C759.314 27.6611 760.661 29.1434 762.32 29.1434H792.414C794.073 29.1434 795.419 27.6611 795.419 25.8351C795.419 24.0091 794.073 22.5269 792.414 22.5269Z" stroke="#1C186C" stroke-width="4.63957" stroke-linecap="round" stroke-linejoin="round"/>
<path d="M778.401 4.86865H776.332C768.038 4.86865 761.324 12.2585 761.324 21.3884V22.527H793.409V21.3884C793.409 12.2585 786.695 4.86865 778.401 4.86865Z" stroke="#1C186C" stroke-width="4.63957" stroke-linecap="round" stroke-linejoin="round"/>
<path d="M761.111 29.6797C761.872 30.5819 762.419 31.8064 763.844 31.8064C765.268 31.8064 765.815 30.5819 766.576 29.6797" stroke="#1C186C" stroke-width="4.63957" stroke-linecap="round" stroke-linejoin="round"/>
<path d="M779.437 29.6797C780.198 30.5819 780.744 31.8064 782.169 31.8064C783.613 31.8064 784.159 30.5819 784.921 29.6797" stroke="#1C186C" stroke-width="4.63957" stroke-linecap="round" stroke-linejoin="round"/>
<path d="M791.361 31.7859C789.936 31.7859 789.39 30.5614 788.629 29.6592" stroke="#1C186C" stroke-width="4.63957" stroke-linecap="round" stroke-linejoin="round"/>
<path d="M770.284 29.6797C771.045 30.5819 771.592 31.8064 773.016 31.8064C774.441 31.8064 774.988 30.5819 775.749 29.6797" stroke="#1C186C" stroke-width="4.63957" stroke-linecap="round" stroke-linejoin="round"/>
<path d="M706.195 273.394H704.126C695.832 273.394 689.118 280.784 689.118 289.914V291.052H721.203V289.914C721.203 280.784 714.489 273.394 706.195 273.394Z" stroke="#1C186C" stroke-width="4.63957" stroke-linecap="round" stroke-linejoin="round"/>
</g>
</svg>
