<svg width="23" height="23" viewBox="0 0 23 23" fill="none" xmlns="http://www.w3.org/2000/svg">
<path d="M16.5331 7.08984C16.0351 6.17672 15.3502 5.48151 14.4786 5.0042C13.607 4.52689 12.5901 4.28823 11.428 4.28823C10.1413 4.28823 8.99993 4.57877 8.00381 5.15984C7.00768 5.74092 6.22946 6.57102 5.66914 7.65016C5.10881 8.7293 4.82865 9.97445 4.82865 11.3856C4.82865 12.8383 5.10881 14.1042 5.66914 15.1834C6.25021 16.2625 7.04919 17.0926 8.06606 17.6737C9.08294 18.2548 10.2658 18.5453 11.6148 18.5453C13.275 18.5453 14.6343 18.1095 15.6927 17.2379C16.751 16.3455 17.4463 15.1107 17.7783 13.5335H10.3073V10.2027H22.0741V14.0005C21.7836 15.5154 21.161 16.9162 20.2064 18.2029C19.2517 19.4895 18.0169 20.5272 16.502 21.3158C15.0078 22.0836 13.3269 22.4675 11.4591 22.4675C9.3631 22.4675 7.46424 22.0006 5.76252 21.0667C4.08156 20.1121 2.75339 18.7943 1.77802 17.1134C0.823397 15.4324 0.346087 13.5232 0.346087 11.3856C0.346087 9.24811 0.823397 7.33887 1.77802 5.65791C2.75339 3.95619 4.08156 2.6384 5.76252 1.70453C7.46424 0.749911 9.35273 0.2726 11.428 0.2726C13.8768 0.2726 16.0039 0.874426 17.8094 2.07808C19.6149 3.26098 20.8601 4.93156 21.5449 7.08984H16.5331Z" fill="#323142"/>
</svg>
