<svg width="33" height="32" viewBox="0 0 33 32" fill="none" xmlns="http://www.w3.org/2000/svg">
<path fill-rule="evenodd" clip-rule="evenodd" d="M12.695 0.76311C13.4886 1.26563 13.7245 2.31632 13.222 3.10988C11.0326 6.56732 9.1201 10.0955 7.17572 13.6825C5.99893 15.8535 4.81046 18.0459 3.54186 20.2573C3.07446 21.0721 2.03508 21.3537 1.22034 20.8863C0.405588 20.4189 0.124004 19.3795 0.591399 18.5647C1.77068 16.5091 2.92549 14.3807 4.09123 12.2321C6.0858 8.55603 8.11237 4.82092 10.3483 1.29008C10.8508 0.49652 11.9015 0.260586 12.695 0.76311Z" fill="#6C5FBC"/>
<path fill-rule="evenodd" clip-rule="evenodd" d="M30.6115 1.14486C31.1942 1.88161 31.0692 2.95119 30.3325 3.53383C22.1139 10.0333 14.4244 17.5882 7.19787 25.3506C6.55785 26.0381 5.48168 26.0766 4.7942 25.4365C4.10671 24.7965 4.06824 23.7204 4.70826 23.0329C11.997 15.2037 19.8173 7.513 28.2225 0.865833C28.9593 0.283189 30.0289 0.408114 30.6115 1.14486Z" fill="#6C5FBC"/>
<path fill-rule="evenodd" clip-rule="evenodd" d="M32.8952 20.0608C33.0638 20.9849 32.4514 21.8706 31.5273 22.0392C28.3646 22.6162 24.5821 24.1288 20.6818 25.9569C18.3559 27.047 16.1093 28.1883 13.9603 29.28C12.4615 30.0414 11.0101 30.7786 9.61263 31.4576C8.76776 31.868 7.75013 31.5158 7.33969 30.6709C6.92924 29.8261 7.28142 28.8084 8.12629 28.398C9.39442 27.7819 10.8099 27.0637 12.3023 26.3063C14.5212 25.1804 16.9102 23.968 19.2382 22.8769C23.1795 21.0297 27.296 19.3536 30.9168 18.693C31.8408 18.5244 32.7266 19.1368 32.8952 20.0608Z" fill="#6C5FBC"/>
</svg>
