<svg width="121" height="44" viewBox="0 0 121 44" fill="none" xmlns="http://www.w3.org/2000/svg">
<path d="M120.208 4.5709C120.369 4.0761 120.098 3.54437 119.603 3.38325C119.109 3.22213 118.577 3.49264 118.416 3.98744L120.208 4.5709ZM95.8173 27.3222L95.9642 28.2529L95.8173 27.3222ZM67.8861 11.7488L68.8283 11.7414L67.8861 11.7488ZM76.2529 1.6267L76.318 2.56667L76.2529 1.6267ZM85.1338 9.01117L84.2476 9.33125L85.1338 9.01117ZM61.439 34.0302L61.5424 34.9667L61.439 34.0302ZM35.9979 17.9812L36.9386 17.9274L35.9979 17.9812ZM42.0501 10.1836L42.2822 11.0967L42.0501 10.1836ZM23.7214 42.3467L23.7963 41.4074L23.7214 42.3467ZM1.35431 28.4455L1.56804 27.5278C1.23324 27.4498 0.88255 27.5604 0.652984 27.8163C0.423418 28.0721 0.35142 28.4327 0.465118 28.7571L1.35431 28.4455ZM9.60314 31.3341C10.1099 31.4522 10.6165 31.137 10.7345 30.6302C10.8526 30.1234 10.5374 29.6169 10.0306 29.4988L9.60314 31.3341ZM3.48302 37.3679C3.65513 37.859 4.19276 38.1176 4.68385 37.9455C5.17493 37.7733 5.43351 37.2357 5.2614 36.7446L3.48302 37.3679ZM119.312 4.27917C118.416 3.98744 118.416 3.98721 118.416 3.98706C118.416 3.98711 118.416 3.98703 118.416 3.98713C118.416 3.98734 118.416 3.98785 118.415 3.98866C118.415 3.99029 118.414 3.99315 118.412 3.9972C118.41 4.00532 118.405 4.01824 118.399 4.03583C118.388 4.07101 118.369 4.12484 118.344 4.19617C118.294 4.33884 118.217 4.55142 118.113 4.82466C117.905 5.37128 117.587 6.15984 117.153 7.11647C116.284 9.03164 114.955 11.6102 113.112 14.2663C109.413 19.5972 103.735 25.1193 95.6705 26.3915L95.9642 28.2529C104.757 26.8658 110.826 20.8664 114.66 15.3406C116.583 12.5683 117.967 9.88478 118.869 7.8949C119.321 6.899 119.653 6.07431 119.874 5.4958C119.984 5.20648 120.067 4.97853 120.122 4.82132C120.149 4.7427 120.17 4.68175 120.185 4.63963C120.192 4.61857 120.197 4.60221 120.201 4.59071C120.203 4.58496 120.204 4.58042 120.205 4.57711C120.206 4.57546 120.206 4.57412 120.207 4.57308C120.207 4.57256 120.207 4.57202 120.207 4.57176C120.207 4.57129 120.208 4.5709 119.312 4.27917ZM95.6705 26.3915C89.3729 27.385 82.6165 26.2244 77.4503 23.5212C72.2709 20.8111 68.8673 16.6634 68.8283 11.7414L66.9439 11.7563C66.9905 17.6401 71.0587 22.3036 76.5766 25.1909C82.1078 28.0851 89.2743 29.3083 95.9642 28.2529L95.6705 26.3915ZM68.8283 11.7414C68.8169 10.2989 69.4142 8.04971 70.7005 6.12233C71.9746 4.21323 73.8389 2.73826 76.318 2.56667L76.1879 0.686727C72.9525 0.910664 70.6203 2.84771 69.1331 5.07627C67.658 7.28655 66.9292 9.90069 66.9439 11.7563L68.8283 11.7414ZM76.318 2.56667C78.6623 2.40442 80.3407 3.33019 81.5955 4.66957C82.8783 6.03894 83.7077 7.83658 84.2476 9.33125L86.02 8.69109C85.4477 7.10675 84.5124 5.02695 82.9707 3.38124C81.4009 1.70554 79.195 0.478588 76.1879 0.686727L76.318 2.56667ZM84.2476 9.33125C86.3995 15.2892 84.105 20.7911 79.4776 25.0861C74.8343 29.3959 67.9452 32.3639 61.3356 33.0936L61.5424 34.9667C68.5112 34.1973 75.7899 31.08 80.7596 26.4673C85.7452 21.8398 88.5088 15.5818 86.02 8.69109L84.2476 9.33125ZM61.3356 33.0936C55.6666 33.7195 49.6764 32.6642 45.0533 30.0657C40.4492 27.4779 37.2518 23.4004 36.9386 17.9274L35.0572 18.0351C35.4152 24.2899 39.1002 28.8814 44.1299 31.7084C49.1405 34.5247 55.5353 35.6299 61.5424 34.9667L61.3356 33.0936ZM36.9386 17.9274C36.8403 16.2109 37.253 14.7597 38.11 13.6258C38.9685 12.4898 40.334 11.592 42.2822 11.0967L41.818 9.27038C39.5422 9.84888 37.7726 10.9468 36.6066 12.4897C35.4389 14.0347 34.9376 15.9455 35.0572 18.0351L36.9386 17.9274ZM42.2822 11.0967C44.0638 10.6439 45.5046 11.0057 46.7211 11.881C47.9758 12.7839 49.0369 14.2697 49.902 16.1185L51.6088 15.3198C50.6737 13.3213 49.4405 11.5162 47.8218 10.3514C46.1649 9.15916 44.1532 8.67678 41.818 9.27038L42.2822 11.0967ZM49.902 16.1185C52.7993 22.31 49.7353 28.7998 43.9696 33.789C38.2178 38.7662 30.1169 41.9109 23.7963 41.4074L23.6466 43.2859C30.5905 43.839 39.1713 40.4331 45.2027 35.2139C51.2204 30.0067 55.0411 22.6544 51.6088 15.3198L49.902 16.1185ZM23.7963 41.4074C18.8899 41.0166 13.4889 37.7022 9.21591 34.3442C7.10202 32.683 5.30649 31.0455 4.03935 29.8229C3.40625 29.212 2.90625 28.7059 2.56567 28.3537C2.3954 28.1777 2.26506 28.0402 2.17793 27.9474C2.13436 27.9011 2.10161 27.8659 2.08008 27.8426C2.06931 27.831 2.06135 27.8224 2.05626 27.8168C2.0537 27.8141 2.05187 27.8121 2.05075 27.8108C2.05019 27.8102 2.04981 27.8098 2.04962 27.8096C2.04952 27.8095 2.04951 27.8095 2.04946 27.8094C2.04949 27.8095 2.04957 27.8096 1.35431 28.4455C0.659041 29.0814 0.659212 29.0816 0.659431 29.0818C0.659561 29.082 0.659823 29.0823 0.660089 29.0825C0.66062 29.0831 0.661339 29.0839 0.662232 29.0849C0.664024 29.0868 0.666538 29.0896 0.669777 29.0931C0.676244 29.1001 0.685593 29.1102 0.69777 29.1234C0.722116 29.1497 0.757774 29.188 0.804318 29.2375C0.897412 29.3367 1.0341 29.4808 1.21109 29.6638C1.56502 30.0298 2.08043 30.5514 2.73088 31.179C4.03084 32.4333 5.87503 34.1155 8.05153 35.8259C12.3593 39.2112 18.1419 42.8474 23.6466 43.2859L23.7963 41.4074ZM1.14058 29.3631L9.60314 31.3341L10.0306 29.4988L1.56804 27.5278L1.14058 29.3631ZM0.465118 28.7571L3.48302 37.3679L5.2614 36.7446L2.2435 28.1338L0.465118 28.7571Z" fill="#6C5FBC"/>
</svg>
