<svg width="22" height="17" viewBox="0 0 22 17" fill="none" xmlns="http://www.w3.org/2000/svg">
<path fill-rule="evenodd" clip-rule="evenodd" d="M1.75639 16.2881C0.792702 16.2881 0.0114746 15.5069 0.0114746 14.5432L0.0114746 2.578C0.0114746 1.61431 0.792702 0.833078 1.75639 0.833078L19.6507 0.833078C20.7015 0.833078 21.2807 2.05359 20.6162 2.86763L18.8177 5.07074L21.0232 7.7724C21.3977 8.23113 21.3977 8.89003 21.0232 9.34876L18.8177 12.0504L20.6162 14.2535C21.2807 15.0676 20.7015 16.2881 19.6507 16.2881L1.75639 16.2881ZM1.50712 14.5432C1.50712 14.6808 1.61872 14.7924 1.75639 14.7924L19.1254 14.7924L17.5304 12.8386C17.156 12.3799 17.156 11.721 17.5304 11.2622L19.7359 8.56058L17.5304 5.85892C17.156 5.40019 17.156 4.74129 17.5304 4.28257L19.1254 2.32872L1.75639 2.32872C1.61872 2.32872 1.50712 2.44033 1.50712 2.578L1.50712 14.5432Z" fill="#ACADB9"/>
</svg>
