<svg width="16" height="20" viewBox="0 0 16 20" fill="none" xmlns="http://www.w3.org/2000/svg">
<path d="M6.26445 14.2335C6.26445 13.4137 6.92906 12.7491 7.7489 12.7491C8.56873 12.7491 9.23334 13.4137 9.23334 14.2335C9.23334 15.0534 8.56873 15.718 7.7489 15.718C6.92906 15.718 6.26445 15.0534 6.26445 14.2335Z" fill="#A2A3A6"/>
<path fill-rule="evenodd" clip-rule="evenodd" d="M3.41595 8.88671L3.10378 6.07718C3.06376 5.71697 3.06376 5.35344 3.10378 4.99324L3.12631 4.79047C3.36529 2.63961 5.05618 0.937788 7.20544 0.684933C7.56648 0.642457 7.93126 0.642457 8.2923 0.684933C10.4416 0.937788 12.1325 2.63962 12.3714 4.79047L12.394 4.99324C12.434 5.35344 12.434 5.71697 12.394 6.07718L12.0818 8.88671L12.7613 8.94095C13.8328 9.02649 14.7077 9.83195 14.8814 10.8927C15.2437 13.1052 15.2437 15.3619 14.8814 17.5743C14.7077 18.6351 13.8328 19.4406 12.7613 19.5261L11.2807 19.6443C8.92991 19.832 6.56793 19.832 4.21718 19.6443L2.73657 19.5261C1.66507 19.4406 0.790129 18.6351 0.616433 17.5743C0.254158 15.3619 0.254158 13.1052 0.616433 10.8927C0.790129 9.83195 1.66507 9.02649 2.73657 8.94095L3.41595 8.88671ZM7.37889 2.15921C7.6247 2.13029 7.87305 2.13029 8.11886 2.15921C9.58215 2.33136 10.7334 3.49002 10.8961 4.9544L10.9186 5.15717C10.9465 5.40842 10.9465 5.66199 10.9186 5.91325L10.6008 8.77372C8.70147 8.65142 6.79627 8.65143 4.89698 8.77373L4.57914 5.91325C4.55123 5.66199 4.55123 5.40842 4.57914 5.15717L4.60168 4.9544C4.76438 3.49002 5.91559 2.33136 7.37889 2.15921ZM11.1625 10.3025C8.89041 10.1211 6.60744 10.1211 4.33531 10.3025L2.8547 10.4207C2.46386 10.4519 2.14473 10.7457 2.08137 11.1326C1.74511 13.1862 1.74511 15.2809 2.08137 17.3345C2.14473 17.7214 2.46386 18.0152 2.8547 18.0464L4.33531 18.1646C6.60744 18.346 8.89041 18.346 11.1625 18.1646L12.6431 18.0464C13.034 18.0152 13.3531 17.7214 13.4165 17.3345C13.7527 15.2809 13.7527 13.1862 13.4165 11.1326C13.3531 10.7457 13.034 10.4519 12.6431 10.4207L11.1625 10.3025Z" fill="#A2A3A6"/>
</svg>
