<svg width="36" height="36" viewBox="0 0 36 36" fill="none" xmlns="http://www.w3.org/2000/svg">
<g clip-path="url(#clip0_2_3104)">
<path d="M1.46143 20.9243V24.8018H32.1923C33.0562 24.8018 33.7153 20.856 33.7153 20.856L1.46143 20.9243Z" fill="#F2C05A"/>
<path d="M1.46107 25.7506C0.928481 25.7506 0.510742 25.3338 0.510742 24.8021V20.9242C0.510742 20.4014 0.937046 19.9761 1.46107 19.9761L33.7379 19.9077C34.0061 19.9077 34.2837 20.0347 34.4449 20.2313C34.6302 20.453 34.7015 20.7226 34.6474 20.9922C33.8598 25.7506 32.6649 25.7506 32.2153 25.7506H1.46107ZM31.9264 23.8765L31.9903 23.7487C32.1343 23.4613 32.3005 22.9513 32.5295 22.0949L32.6073 21.8039L2.43436 21.8731V23.8765H2.66562H31.9264Z" fill="#4C2F1B"/>
<path d="M25.4414 1.73895C24.7823 1.3987 23.9639 1.48959 23.4185 1.9887L1.48389 20.9242H5.57562V31.832C5.57562 33.1247 6.62094 34.1676 7.9166 34.1676C9.21225 34.1676 10.2576 33.1247 10.2576 31.832V20.9242H12.6896V26.0719C12.6896 27.387 13.7805 28.4757 15.0991 28.4757C16.4174 28.4757 17.5086 27.3874 17.5086 26.0719V20.9242H20.9864C21.3275 22.2169 22.4868 23.1693 23.8732 23.1693C25.26 23.1693 26.4415 22.2169 26.76 20.9242L33.7607 20.9017C35.965 8.36101 28.4189 3.2359 25.4414 1.73895Z" fill="#FFDE8A"/>
<path d="M18.2132 9.99354C19.554 9.99354 20.6226 8.92773 20.6226 7.58965C20.6226 6.65979 20.0998 5.88879 19.3496 5.48096L15.9629 8.40609C16.3039 9.33596 17.1674 9.99354 18.2132 9.99354Z" fill="#FF5C5C"/>
<path d="M18.2132 10.4699C17.0083 10.4699 15.9174 9.69886 15.5082 8.56509C15.4401 8.3837 15.4853 8.17978 15.6445 8.04384L19.0312 5.11831C19.1675 4.98237 19.3948 4.95945 19.5537 5.05034C20.5083 5.54945 21.0767 6.52437 21.0767 7.56764C21.1 9.17723 19.8044 10.4699 18.2132 10.4699ZM16.531 8.54256C16.872 9.15509 17.5086 9.54039 18.2132 9.54039C19.2815 9.54039 20.1454 8.67889 20.1454 7.6127C20.1454 7.00056 19.8499 6.43348 19.3722 6.0707L16.531 8.54256Z" fill="#4C2F1B"/>
<path d="M26.1914 12.0571C25.9185 13.2138 26.6687 14.393 27.8277 14.6424C28.6461 14.8238 29.4414 14.529 29.9417 13.9393L28.0325 10.3792C27.146 10.4926 26.3958 11.1272 26.1914 12.0571Z" fill="#FF5C5C"/>
<path d="M28.3052 15.1644C28.1234 15.1644 27.919 15.1418 27.7372 15.0964C26.3278 14.7791 25.4188 13.373 25.7369 11.9444C25.9868 10.8786 26.8733 10.0622 27.9871 9.92624C28.1689 9.90371 28.3737 9.99421 28.4644 10.1756L30.3736 13.7133C30.4647 13.8947 30.4418 14.0986 30.3055 14.2349C29.7827 14.8241 29.0554 15.1644 28.3052 15.1644ZM26.6459 12.1484C26.5548 12.602 26.6233 13.0553 26.8729 13.4181C27.1232 13.8034 27.4868 14.0757 27.9412 14.1665C28.4414 14.28 28.9639 14.144 29.3731 13.8263L27.8049 10.9012C27.2143 11.1051 26.7822 11.5584 26.6459 12.1484Z" fill="#4C2F1B"/>
<path d="M7.89352 35.0933C6.07852 35.0933 4.60145 33.6201 4.60145 31.8089V21.8496H1.46082C1.05592 21.8496 0.713713 21.6092 0.589131 21.2367C0.439633 20.8619 0.549421 20.4486 0.857761 20.195L22.7966 1.25594C23.3051 0.823247 23.9498 0.583984 24.6112 0.583984C25.0469 0.583984 25.467 0.683418 25.8602 0.879955C28.5239 2.21959 37.0328 7.63018 34.6689 20.9974C34.5969 21.446 34.1967 21.7816 33.7373 21.7816L27.3906 21.8049L27.3264 21.9292C26.6493 23.237 25.3171 24.0496 23.8497 24.0496C22.3828 24.0496 21.0505 23.2374 20.3731 21.9292L20.3081 21.8041H18.4359V26.0037C18.4359 27.8397 16.9389 29.3331 15.0986 29.3331C13.2583 29.3331 11.7618 27.8397 11.7618 26.0041V21.8045H11.2078V31.7638C11.1868 33.5987 9.69996 35.0933 7.89352 35.0933ZM24.5879 2.48216C24.3738 2.48216 24.1756 2.55751 24.0144 2.70045L3.99917 19.9759H5.55216C5.81573 19.9759 6.04543 20.0695 6.19843 20.2396C6.38569 20.4268 6.47991 20.6607 6.47991 20.9244V31.8322C6.47991 32.6098 7.11411 33.2425 7.89313 33.2425C8.68579 33.2425 9.30636 32.623 9.30636 31.8322V20.924C9.30636 20.4012 9.73266 19.9759 10.2567 19.9759H12.6888C12.9519 19.9759 13.1816 20.0695 13.335 20.2396C13.5223 20.4268 13.6165 20.6607 13.6165 20.9244V26.072C13.6165 26.8745 14.2709 27.5274 15.0753 27.5274C15.8796 27.5274 16.5341 26.8745 16.5341 26.072V20.9015C16.5341 20.3783 16.9604 19.953 17.4844 19.953H20.9622C21.3966 19.953 21.7634 20.2392 21.8747 20.6649C22.1071 21.5676 22.9193 22.1984 23.849 22.1984C24.7787 22.1984 25.5908 21.5676 25.8232 20.6645C25.9345 20.2396 26.3013 19.9534 26.7354 19.9534L32.9376 19.9301L32.9652 19.732C34.5136 8.67385 27.9111 4.05096 25.0006 2.57654C24.8596 2.51245 24.7238 2.48216 24.5879 2.48216Z" fill="#4C2F1B"/>
<path d="M33.7376 20.8559C36.0108 8.0888 28.1006 3.03166 25.2594 1.64853C24.691 1.37625 24.0089 1.46714 23.5316 1.87536L21.8042 3.3723C25.5775 6.18402 31.9191 11.3775 29.9869 20.8792L33.7376 20.8559Z" fill="#FFB07B"/>
<path d="M29.9876 21.8046C29.7115 21.8046 29.4378 21.6745 29.2564 21.4566C29.0754 21.2403 29.0003 20.9482 29.0552 20.6744C30.7191 12.4672 26.0259 7.69865 21.2158 4.1167C20.9885 3.95939 20.8507 3.69294 20.8308 3.38027C20.8133 3.09828 20.932 2.82911 21.157 2.64229L22.888 1.14223C23.3501 0.744112 23.9344 0.524658 24.5332 0.524658C24.914 0.524658 25.2936 0.615935 25.6319 0.788391C28.3524 2.1121 37.0288 7.47686 34.624 21.02C34.5519 21.469 34.1517 21.8046 33.6927 21.8046H29.9876ZM24.5465 2.42283C24.3896 2.42283 24.2354 2.47954 24.1112 2.58286L23.2851 3.31502L23.5031 3.48553C25.6833 5.19377 32.318 10.3923 31.1217 19.6474L31.0882 19.9076H32.9168L32.9444 19.7088C34.5216 8.43974 27.784 3.9089 24.8143 2.48381C24.7353 2.44458 24.6418 2.42283 24.5465 2.42283Z" fill="#4C2F1B"/>
<path d="M29.9874 20.856C29.9874 20.856 29.7826 23.3503 28.8735 24.8018H32.2147C32.2147 24.8018 33.3966 24.1668 33.7377 20.856H29.9874Z" fill="#E2803D"/>
<path d="M28.8734 25.7504C28.5234 25.7504 28.2178 25.5675 28.0551 25.261C27.8849 24.9584 27.8916 24.5968 28.0695 24.3121C28.7239 23.2486 28.9933 21.3606 29.0362 20.7826C29.0716 20.3045 29.4796 19.9304 29.9647 19.9304H33.715C33.9934 19.9304 34.2425 20.04 34.3998 20.2314C34.598 20.4493 34.6801 20.6987 34.6447 20.9617C34.2593 24.6058 32.8982 25.4991 32.6292 25.6413C32.5202 25.7123 32.3656 25.7504 32.2146 25.7504H28.8734V25.7504ZM30.8056 21.9902C30.7157 22.4392 30.6036 22.9981 30.4252 23.5776L30.3334 23.8763H31.8579L31.9272 23.7777C32.0837 23.5543 32.3796 23.0377 32.5996 22.0873L32.665 21.8045H30.843L30.8056 21.9902Z" fill="#4C2F1B"/>
<path d="M11.9395 16.1165C11.9395 16.9807 12.6414 17.6811 13.5076 17.6811C14.3739 17.6811 15.0758 16.9807 15.0758 16.1165C15.0758 15.2523 14.3739 14.552 13.5076 14.552C12.6414 14.552 11.9395 15.2523 11.9395 16.1165Z" fill="#FF5C5C"/>
<path d="M13.5078 18.1575C12.3939 18.1575 11.4619 17.2506 11.4619 16.1168C11.4619 14.983 12.371 14.0757 13.5078 14.0757C14.6442 14.0757 15.5533 14.9826 15.5533 16.1168C15.5533 17.2502 14.6442 18.1575 13.5078 18.1575ZM13.5078 15.0281C12.8942 15.0281 12.4169 15.5272 12.4169 16.1164C12.4169 16.706 12.9168 17.2047 13.5078 17.2047C14.0988 17.2047 14.5987 16.7056 14.5987 16.1164C14.5987 15.5268 14.1213 15.0281 13.5078 15.0281Z" fill="#4C2F1B"/>
<path d="M21.2361 17.6812H17.9402C17.7584 17.6812 17.5991 17.5223 17.5991 17.3409V16.5924C17.5991 16.4111 17.7584 16.2522 17.9402 16.2522H21.2361C21.4179 16.2522 21.5772 16.4111 21.5772 16.5924V17.3409C21.5998 17.5223 21.4405 17.6812 21.2361 17.6812Z" fill="#3DE25C"/>
<path d="M20.8727 18.1578H18.327C17.6679 18.1578 17.145 17.6361 17.145 16.9785C17.145 16.321 17.6679 15.7993 18.327 15.7993H20.8727C21.5319 15.7993 22.0547 16.321 22.0547 16.9785C22.0547 17.6361 21.5319 18.1578 20.8727 18.1578ZM18.327 16.7288C18.1907 16.7288 18.077 16.8422 18.077 16.9782C18.077 17.1145 18.1907 17.2279 18.327 17.2279H20.8727C21.009 17.2279 21.1227 17.1145 21.1227 16.9782C21.1227 16.8422 21.009 16.7288 20.8727 16.7288H18.327Z" fill="#4C2F1B"/>
<path d="M23.509 14.2568L21.7586 12.3521C21.6905 12.2841 21.6905 12.1707 21.7586 12.1027L22.554 11.3772C22.6221 11.3092 22.7358 11.3092 22.8043 11.3772L24.5547 13.2819C24.6228 13.3499 24.6228 13.4633 24.5547 13.5313L23.7593 14.2568C23.7134 14.3252 23.5771 14.3252 23.509 14.2568Z" fill="#3DE25C"/>
<path d="M23.6687 14.7103H23.6236C23.3962 14.7103 23.1914 14.5969 23.0326 14.438L21.5325 12.8281C21.3733 12.6692 21.3052 12.4427 21.3052 12.2159C21.3052 11.9895 21.4189 11.7852 21.5781 11.6263L22.078 11.1726C22.2372 11.0138 22.4646 10.9458 22.6919 10.9458C22.9193 10.9458 23.1237 11.0592 23.2829 11.2181L24.783 12.8281C24.9422 12.9869 25.0103 13.2137 25.0103 13.4406C25.0103 13.6674 24.8966 13.8713 24.7374 14.0302L24.2375 14.4839C24.0779 14.6194 23.8731 14.7103 23.6687 14.7103ZM22.3049 12.2384L23.6687 13.7125L24.0323 13.3722L22.6686 11.8982L22.3049 12.2384Z" fill="#4C2F1B"/>
</g>
<defs>
<clipPath id="clip0_2_3104">
<rect width="34.5688" height="34.5688" fill="white" transform="translate(0.510742 0.524658)"/>
</clipPath>
</defs>
</svg>
