<svg width="19" height="19" viewBox="0 0 19 19" fill="none" xmlns="http://www.w3.org/2000/svg">
<path d="M12.0017 15.203C13.2136 15.8663 14.2794 15.0624 14.0476 13.6554L13.6315 11.1291L15.3944 9.34005C16.3748 8.34504 15.9698 7.04126 14.6129 6.83599L12.1766 6.46742L11.0925 4.18034C10.4852 2.89922 9.16664 2.88544 8.55821 4.16897L7.46868 6.46742L5.03241 6.83599C3.67747 7.04097 3.26911 8.34363 4.25094 9.34005L6.01384 11.1291L5.59768 13.6554C5.36622 15.0604 6.42998 15.8673 7.64359 15.203L9.82266 14.0103L12.0017 15.203Z" fill="#6C5FBC"/>
<mask id="mask0_10_11825" style="mask-type:luminance" maskUnits="userSpaceOnUse" x="3" y="3" width="13" height="13">
<path d="M12.0017 15.203C13.2136 15.8663 14.2794 15.0624 14.0476 13.6554L13.6315 11.1291L15.3944 9.34005C16.3748 8.34504 15.9698 7.04126 14.6129 6.83599L12.1766 6.46742L11.0925 4.18034C10.4852 2.89922 9.16664 2.88544 8.55821 4.16897L7.46868 6.46742L5.03241 6.83599C3.67747 7.04097 3.26911 8.34363 4.25094 9.34005L6.01384 11.1291L5.59768 13.6554C5.36622 15.0604 6.42998 15.8673 7.64359 15.203L9.82266 14.0103L12.0017 15.203Z" fill="white"/>
</mask>
<g mask="url(#mask0_10_11825)">
</g>
</svg>
