<svg width="35" height="35" viewBox="0 0 35 35" fill="none" xmlns="http://www.w3.org/2000/svg">
<g clip-path="url(#clip0_2_3064)">
<path d="M17.5283 1.28345C8.51577 1.28345 1.18994 8.5872 1.18994 17.6221C1.18994 26.6352 8.49361 33.9607 17.5283 33.9607C26.5414 33.9607 33.8667 26.6569 33.8667 17.6221C33.8667 8.5872 26.5414 1.28345 17.5283 1.28345ZM17.5283 23.0387C14.5315 23.0387 12.0896 20.5967 12.0896 17.5999C12.0896 14.6031 14.5315 12.1611 17.5283 12.1611C20.5252 12.1611 22.9671 14.6031 22.9671 17.5999C22.9671 20.6193 20.5256 23.0387 17.5283 23.0387Z" fill="#EDB66B"/>
<path d="M10.1541 22.949C9.75034 22.949 9.41042 22.8 9.15515 22.5452C8.55995 21.9287 8.58122 20.8664 8.62377 19.6126C8.64504 18.5286 8.68759 17.1684 8.17748 16.6375C8.07112 16.5099 7.85884 16.3614 7.37 16.3401H7.28491C6.75354 16.3401 6.37107 16.4465 6.15834 16.68C5.73333 17.1263 5.79715 18.1253 5.83969 18.9328C5.90351 19.7828 5.94606 20.5269 5.45722 20.9519C5.09603 21.2919 4.6072 21.4621 4.07582 21.4621C3.03434 21.4621 1.80185 20.7397 1.39811 19.8896C1.35601 19.8041 1.33473 19.7403 1.33473 19.6552L1.31346 19.4424C1.24964 18.635 1.16455 17.7424 1.16455 17.3599C1.16455 8.34898 8.49613 1.03857 17.4852 1.03857C26.4743 1.03857 33.8063 8.37025 33.8063 17.3599C33.8063 17.7211 33.7851 18.1036 33.7638 18.4652C33.6787 19.5914 32.7649 20.4627 31.66 20.4627C31.4264 20.4627 31.1712 20.4201 30.9376 20.335C29.8749 19.9313 28.9823 19.1663 28.1323 18.4222C26.8998 17.3382 25.7306 16.3397 24.0731 16.2971C23.0317 16.2759 22.0965 15.7019 21.6082 14.8093C20.4182 12.5992 20.2693 12.5141 17.2729 12.5141C11.7478 12.5141 11.7478 15.6168 11.7478 16.6371C11.7478 17.211 11.7903 17.827 11.8116 18.4222C11.918 20.1648 12.003 21.6947 11.2589 22.4814C11.0254 22.7792 10.6216 22.949 10.1541 22.949Z" fill="#86522C"/>
<path d="M17.5281 1.73985C26.156 1.73985 33.1689 8.7316 33.1689 17.3809C33.1689 17.7421 33.1477 18.1033 33.1264 18.4436C33.0626 19.2086 32.4253 19.7825 31.7241 19.7825C31.5752 19.7825 31.4055 19.7612 31.2566 19.6974C28.8763 18.8048 27.3251 15.6808 24.159 15.6174C23.3941 15.5962 22.65 15.1711 22.2888 14.4908C20.9499 11.9833 20.5036 11.8344 17.3371 11.8344C13.8093 11.8344 11.1104 13.0243 11.1104 16.6372C11.1104 19.2299 11.7694 22.2475 10.1752 22.2475C8.07145 22.2475 10.9827 15.7446 7.41287 15.6595H7.30651C3.84259 15.6595 5.75537 19.7825 5.03298 20.4624C4.77771 20.6964 4.45906 20.781 4.11913 20.781C3.26911 20.781 2.33399 20.1858 2.07872 19.6123C2.03617 19.166 1.92981 17.8272 1.92981 17.3809C1.88726 8.7316 8.9002 1.73985 17.5281 1.73985ZM17.5281 0.337158C8.13526 0.337158 0.505859 7.96666 0.505859 17.3596C0.505859 17.7634 0.590951 18.6772 0.654769 19.506L0.676042 19.7183C0.697315 19.8884 0.73986 20.0582 0.803679 20.2071C1.33506 21.312 2.78028 22.1624 4.09786 22.1624C4.79898 22.1624 5.43672 21.9284 5.94682 21.4822C6.69049 20.8236 6.62667 19.8459 6.56285 18.8895C6.54158 18.4007 6.45648 17.4017 6.69049 17.1682C6.73303 17.1256 6.92404 17.0405 7.30651 17.0405H7.37033C7.43415 17.0405 7.62516 17.0405 7.68898 17.1043C8.00763 17.423 7.96508 18.8257 7.94381 19.5906C7.90126 20.9295 7.87999 22.2046 8.6662 23.012C9.04867 23.4158 9.58004 23.6285 10.1752 23.6285C10.8343 23.6285 11.4077 23.3945 11.8327 22.9274C12.7679 21.9284 12.6828 20.2709 12.5764 18.3581C12.5339 17.7842 12.5126 17.1682 12.5126 16.6155C12.5126 15.5953 12.5126 13.1941 17.3366 13.1941C20.0356 13.1941 20.0356 13.1941 21.0554 15.1282C21.6506 16.2543 22.8405 16.9559 24.1156 16.9771C25.5182 16.9984 26.5385 17.8906 27.7284 18.932C28.6423 19.7183 29.5774 20.5475 30.746 20.9725C31.0434 21.0789 31.3838 21.1427 31.7024 21.1427C33.1689 21.1427 34.4014 19.9948 34.4861 18.5075C34.5073 18.125 34.5286 17.7213 34.5286 17.3388C34.5508 7.98793 26.9214 0.337158 17.5281 0.337158Z" fill="#4C2F1B"/>
<path d="M19.8738 32.676C19.9922 32.9853 20.4779 33.0868 20.9588 32.9024C21.4396 32.7185 21.7334 32.3188 21.6151 32.0094C21.4968 31.7001 21.0111 31.599 20.5302 31.783C20.0493 31.9673 19.7555 32.3671 19.8738 32.676Z" fill="#E3A358"/>
<path d="M28.831 26.9527C29.038 27.4934 29.5414 27.8736 30.1517 27.9503C30.762 28.0265 31.386 27.7877 31.7892 27.3236C32.1925 26.8592 32.3135 26.2401 32.1066 25.6994C31.8996 25.1582 31.3961 24.7784 30.7859 24.7017C30.1756 24.6255 29.5512 24.8644 29.1479 25.3284C28.7446 25.7929 28.624 26.412 28.831 26.9527Z" fill="#E3A358"/>
<path d="M13.3626 33.6981C13.5696 34.2387 14.0731 34.619 14.6833 34.6957C15.2936 34.7719 15.918 34.533 16.3213 34.069C16.7246 33.6045 16.8456 32.9854 16.6386 32.4447C16.4317 31.904 15.9282 31.5238 15.318 31.4471C14.7077 31.3709 14.0832 31.6098 13.6799 32.0738C13.2766 32.5382 13.1557 33.1574 13.3626 33.6981Z" fill="#E3A358"/>
<path d="M9.95763 31.1995C10.2825 31.2731 10.6078 31.2301 10.8116 31.0861C11.0151 30.942 11.0656 30.7196 10.9442 30.5015C10.8227 30.2839 10.5479 30.104 10.2231 30.0304C9.89824 29.9564 9.57294 29.9998 9.36908 30.1439C9.16566 30.2879 9.11513 30.5104 9.23657 30.728C9.35756 30.946 9.63277 31.1255 9.95763 31.1995Z" fill="#E3A358"/>
<path d="M16.9117 24.6021C17.1824 24.6637 17.4466 24.6588 17.6048 24.5888C17.763 24.5188 17.7909 24.3951 17.6788 24.2639C17.5662 24.1328 17.33 24.014 17.0592 23.9524C16.7885 23.8908 16.5243 23.8956 16.3661 23.9657C16.2079 24.0357 16.18 24.1593 16.2921 24.2905C16.4047 24.4222 16.6409 24.5405 16.9117 24.6021Z" fill="#E3A358"/>
<path d="M4.6833 26.1249C4.89248 26.1723 5.10211 26.1418 5.23418 26.0451C5.36624 25.9481 5.39948 25.7996 5.32281 25.6556C5.2457 25.5111 5.06975 25.3932 4.86102 25.3458C4.65183 25.2984 4.44221 25.3285 4.31058 25.4256C4.17851 25.5222 4.14483 25.6711 4.22194 25.8151C4.29817 25.9592 4.47456 26.0775 4.6833 26.1249Z" fill="#E3A358"/>
<path d="M13.1033 23.0375C13.379 23.2245 13.6715 23.3415 13.8709 23.3442C14.0704 23.3468 14.1466 23.2347 14.0704 23.0503C13.9946 22.8655 13.7779 22.6368 13.5022 22.4498C13.2265 22.2628 12.934 22.1458 12.7342 22.1431C12.5347 22.1405 12.4589 22.2526 12.5347 22.4369C12.611 22.6218 12.8277 22.8504 13.1033 23.0375Z" fill="#E3A358"/>
<path d="M17.5292 34.9059C7.99812 34.9059 0.244629 27.1523 0.244629 17.622C0.244629 8.09075 7.99812 0.337158 17.5292 0.337158C27.0599 0.337158 34.8134 8.09075 34.8134 17.622C34.8134 27.1523 27.0594 34.9059 17.5292 34.9059ZM17.5292 2.22869C9.05379 2.22869 2.15874 9.12427 2.15874 17.5994C2.15874 26.0745 9.05423 32.9701 17.5292 32.9701C26.0042 32.9701 32.8997 26.0749 32.8997 17.5994C32.8997 9.12383 26.0042 2.22869 17.5292 2.22869ZM17.5292 24.0061C14.0086 24.0061 11.1447 21.1422 11.1447 17.622C11.1447 14.0893 14.0086 11.2152 17.5292 11.2152C21.0494 11.2152 23.9133 14.0791 23.9133 17.5998C23.9133 21.132 21.0494 24.0061 17.5292 24.0061ZM17.5292 13.1285C15.0638 13.1285 13.0584 15.1344 13.0584 17.5994C13.0584 20.0644 15.0642 22.0703 17.5292 22.0703C19.9942 22.0703 22.0001 20.0644 22.0001 17.5994C21.9996 15.1344 19.9942 13.1285 17.5292 13.1285Z" fill="#4C2F1B"/>
<path d="M18.4611 8.69756L14.7317 6.23343C14.5762 6.14434 14.554 5.94491 14.6426 5.78935L15.0645 5.168C15.1532 5.01244 15.3531 4.99028 15.5086 5.07892L19.238 7.54305C19.3936 7.63213 19.4157 7.83201 19.3266 7.98712L18.9047 8.60892C18.8165 8.76403 18.6167 8.78619 18.4611 8.69756Z" fill="#DB79AD"/>
<path d="M3.65434 12.6047L4.63112 10.4738C4.6976 10.3183 4.89747 10.2518 5.05303 10.3183L5.74129 10.6289C5.89685 10.6954 5.96333 10.8953 5.89685 11.0508L4.92008 13.1817C4.85315 13.3373 4.65372 13.4037 4.49816 13.3373L3.8099 13.0266C3.65434 12.9375 3.56571 12.7602 3.65434 12.6047ZM27.8956 12.4269L26.0307 10.9839C25.8977 10.8731 25.8751 10.6732 25.9642 10.5398L26.4304 9.94065C26.5412 9.8077 26.7411 9.78509 26.8745 9.87417L28.7394 11.3172C28.8724 11.4284 28.895 11.6279 28.8059 11.7613L28.3397 12.3609C28.2289 12.516 28.029 12.5377 27.8956 12.4269Z" fill="#F6B173"/>
<path d="M23.2114 9.40816L21.9239 6.49995C21.8575 6.34439 21.9239 6.14451 22.0795 6.07804L22.7673 5.76736C22.9229 5.70088 23.1227 5.76736 23.1892 5.92292L24.4767 8.83113C24.5431 8.98669 24.4767 9.18612 24.3211 9.25304L23.6328 9.56372C23.4782 9.6302 23.3005 9.56327 23.2114 9.40816ZM8.91516 14.8248L7.62771 11.9166C7.56123 11.7611 7.62771 11.5616 7.78327 11.4947L8.47153 11.184C8.62709 11.1175 8.82652 11.184 8.89344 11.3396L10.1809 14.2478C10.2474 14.4033 10.1809 14.6032 10.0253 14.6697L9.33707 14.9804C9.1598 15.069 8.98208 14.9804 8.91516 14.8248Z" fill="#F7E774"/>
<path d="M9.51541 8.80848L10.8476 5.92243C10.9141 5.76687 11.114 5.70039 11.2695 5.76687L11.9578 6.07755C12.1133 6.14403 12.1798 6.3439 12.1133 6.49946L10.7811 9.38551C10.7147 9.54107 10.5148 9.60755 10.3592 9.54107L9.67096 9.2304C9.51541 9.16392 9.44893 8.9862 9.51541 8.80848ZM29.561 16.0458L30.0051 12.8934C30.0273 12.7156 30.1828 12.6048 30.3605 12.627L31.1153 12.7378C31.293 12.76 31.4038 12.9155 31.3816 13.0928L30.9376 16.2452C30.9154 16.4225 30.7599 16.5337 30.5826 16.5115L29.8278 16.4008C29.6497 16.3786 29.5389 16.2235 29.561 16.0458Z" fill="#EC6A69"/>
<path d="M7.8632 26.9096C8.01831 26.9894 8.19071 27.0062 8.31569 26.9544C8.44022 26.9025 8.49828 26.7895 8.4677 26.6579C8.43712 26.5262 8.32233 26.3964 8.16722 26.3166C8.01211 26.2368 7.83971 26.22 7.71473 26.2719C7.5902 26.3237 7.53214 26.4367 7.56272 26.5684C7.5933 26.6995 7.70764 26.8298 7.8632 26.9096Z" fill="#E3A358"/>
<path d="M24.1871 27.6895C24.2265 27.7932 24.39 27.8406 24.6147 27.8136C24.8399 27.787 25.0929 27.6899 25.2782 27.5596C25.4634 27.4293 25.5534 27.2848 25.5139 27.1811C25.4741 27.0774 25.311 27.03 25.0858 27.0566C24.8607 27.0832 24.6076 27.1798 24.4224 27.3105C24.2371 27.4413 24.1472 27.5858 24.1871 27.6895Z" fill="#E3A358"/>
<path d="M14.2217 26.525C14.4322 26.6806 14.6821 26.7493 14.8771 26.7054C15.0721 26.6615 15.1829 26.5117 15.167 26.3123C15.1515 26.1133 15.0123 25.8944 14.8018 25.7388C14.5913 25.5833 14.3413 25.5146 14.1463 25.5584C13.9513 25.6023 13.8405 25.7521 13.8565 25.9515C13.8716 26.1514 14.0112 26.3699 14.2217 26.525Z" fill="#E3A358"/>
<path d="M20.4416 29.5037C20.4668 29.6859 20.7137 29.802 20.9929 29.7634C21.2725 29.7249 21.4782 29.5458 21.4529 29.3637C21.4276 29.1815 21.1808 29.065 20.9016 29.104C20.6219 29.1425 20.4163 29.3216 20.4416 29.5037Z" fill="#E3A358"/>
</g>
<defs>
<clipPath id="clip0_2_3064">
<rect width="34.5688" height="34.5688" fill="white" transform="translate(0.244629 0.337158)"/>
</clipPath>
</defs>
</svg>
