<svg width="17" height="20" viewBox="0 0 17 20" fill="none" xmlns="http://www.w3.org/2000/svg">
<path fill-rule="evenodd" clip-rule="evenodd" d="M4.09124 5.46053C4.09124 2.948 6.12805 0.911194 8.64058 0.911194C11.1531 0.911194 13.1899 2.948 13.1899 5.46053C13.1899 7.97306 11.1531 10.0099 8.64058 10.0099C6.12805 10.0099 4.09124 7.97306 4.09124 5.46053ZM8.64058 2.51684C7.01482 2.51684 5.69689 3.83478 5.69689 5.46053C5.69689 7.08629 7.01482 8.40422 8.64058 8.40422C10.2663 8.40422 11.5843 7.08629 11.5843 5.46053C11.5843 3.83478 10.2663 2.51684 8.64058 2.51684Z" fill="#A2A3A6"/>
<path fill-rule="evenodd" clip-rule="evenodd" d="M4.35885 13.2212C3.02869 13.2212 1.95038 14.2995 1.95038 15.6296V16.9016C1.95038 16.921 1.96441 16.9375 1.98353 16.9406C6.39238 17.6604 10.8888 17.6604 15.2976 16.9406C15.3167 16.9375 15.3308 16.921 15.3308 16.9016V15.6296C15.3308 14.2995 14.2525 13.2212 12.9223 13.2212H12.5574C12.5292 13.2212 12.5012 13.2256 12.4744 13.2344L11.5479 13.5369C9.65876 14.1538 7.6224 14.1538 5.73327 13.5369L4.80679 13.2344C4.77997 13.2256 4.75194 13.2212 4.72373 13.2212H4.35885ZM0.344727 15.6296C0.344727 13.4127 2.14191 11.6155 4.35885 11.6155H4.72373C4.92121 11.6155 5.11746 11.6467 5.30519 11.708L6.23166 12.0106C7.79694 12.5217 9.48422 12.5217 11.0495 12.0106L11.976 11.708C12.1637 11.6467 12.3599 11.6155 12.5574 11.6155H12.9223C15.1392 11.6155 16.9364 13.4127 16.9364 15.6296V16.9016C16.9364 17.7079 16.3521 18.3954 15.5564 18.5253C10.9762 19.2731 6.305 19.2731 1.72481 18.5253C0.929058 18.3954 0.344727 17.7079 0.344727 16.9016V15.6296Z" fill="#A2A3A6"/>
</svg>
